<svg width="30" height="30" viewBox="0 0 30 30" fill="none" xmlns="http://www.w3.org/2000/svg">
<circle cx="15" cy="15" r="15" fill="#FF7442"/>
<g clip-path="url(#clip0_449_6)">
<path d="M15 15C15.7911 15 16.5645 14.7654 17.2223 14.3259C17.8801 13.8864 18.3928 13.2616 18.6955 12.5307C18.9983 11.7998 19.0775 10.9956 18.9231 10.2196C18.7688 9.44372 18.3878 8.73098 17.8284 8.17157C17.269 7.61216 16.5563 7.2312 15.7804 7.07686C15.0044 6.92252 14.2002 7.00173 13.4693 7.30448C12.7384 7.60723 12.1136 8.11992 11.6741 8.77772C11.2346 9.43552 11 10.2089 11 11C11.0011 12.0605 11.4228 13.0773 12.1727 13.8273C12.9227 14.5772 13.9395 14.9989 15 15ZM15 8.33334C15.5274 8.33334 16.043 8.48973 16.4815 8.78275C16.9201 9.07577 17.2618 9.49224 17.4637 9.97951C17.6655 10.4668 17.7183 11.003 17.6154 11.5202C17.5125 12.0375 17.2586 12.5127 16.8856 12.8856C16.5127 13.2586 16.0375 13.5125 15.5202 13.6154C15.003 13.7183 14.4668 13.6655 13.9795 13.4637C13.4922 13.2618 13.0758 12.9201 12.7827 12.4815C12.4897 12.043 12.3333 11.5274 12.3333 11C12.3333 10.2928 12.6143 9.61448 13.1144 9.11438C13.6145 8.61429 14.2928 8.33334 15 8.33334Z" fill="white"/>
<path d="M15 16.3333C13.4092 16.3351 11.8841 16.9678 10.7593 18.0926C9.63447 19.2175 9.00176 20.7426 9 22.3333C9 22.5101 9.07024 22.6797 9.19526 22.8047C9.32029 22.9298 9.48986 23 9.66667 23C9.84348 23 10.013 22.9298 10.1381 22.8047C10.2631 22.6797 10.3333 22.5101 10.3333 22.3333C10.3333 21.0957 10.825 19.9087 11.7002 19.0335C12.5753 18.1583 13.7623 17.6667 15 17.6667C16.2377 17.6667 17.4247 18.1583 18.2998 19.0335C19.175 19.9087 19.6667 21.0957 19.6667 22.3333C19.6667 22.5101 19.7369 22.6797 19.8619 22.8047C19.987 22.9298 20.1565 23 20.3333 23C20.5101 23 20.6797 22.9298 20.8047 22.8047C20.9298 22.6797 21 22.5101 21 22.3333C20.9982 20.7426 20.3655 19.2175 19.2407 18.0926C18.1159 16.9678 16.5908 16.3351 15 16.3333Z" fill="white"/>
</g>
<defs>
<clipPath id="clip0_449_6">
<rect width="16" height="16" fill="white" transform="translate(7 7)"/>
</clipPath>
</defs>
</svg>
