<svg width="30" height="30" viewBox="0 0 30 30" fill="none" xmlns="http://www.w3.org/2000/svg">
<circle cx="15" cy="15" r="15" fill="#FF7442"/>
<path d="M20.333 11H18.333V9.66666C18.333 8.93133 17.735 8.33333 16.9997 8.33333H12.9997C12.2643 8.33333 11.6663 8.93133 11.6663 9.66666V11H9.66634C8.93101 11 8.33301 11.598 8.33301 12.3333V14.3333H21.6663V12.3333C21.6663 11.598 21.0683 11 20.333 11ZM12.9997 9.66666H16.9997V11H12.9997V9.66666ZM16.333 16.3333H13.6663V15H8.33301V19.6667C8.33301 20.402 8.93101 21 9.66634 21H20.333C21.0683 21 21.6663 20.402 21.6663 19.6667V15H16.333V16.3333Z" fill="white"/>
</svg>
