<svg width="30" height="30" viewBox="0 0 30 30" fill="none" xmlns="http://www.w3.org/2000/svg">
<circle cx="15" cy="15" r="15" fill="#FF7442"/>
<path d="M10.3333 9H19.6667C20.0203 9 20.3594 9.14048 20.6095 9.39052C20.8595 9.64057 21 9.97971 21 10.3333V19.6667C21 20.0203 20.8595 20.3594 20.6095 20.6095C20.3594 20.8595 20.0203 21 19.6667 21H10.3333C9.97971 21 9.64057 20.8595 9.39052 20.6095C9.14048 20.3594 9 20.0203 9 19.6667V10.3333C9 9.97971 9.14048 9.64057 9.39052 9.39052C9.64057 9.14048 9.97971 9 10.3333 9ZM15 18.3333L18.3333 15H15.6667V11.6667H14.3333V15H11.6667L15 18.3333Z" fill="white"/>
</svg>
