<svg width="30" height="30" viewBox="0 0 30 30" fill="none" xmlns="http://www.w3.org/2000/svg">
<circle cx="15" cy="15" r="15" fill="#FF7442"/>
<path d="M12.3337 13.3333C12.7951 13.3333 13.2463 13.1965 13.63 12.9401C14.0137 12.6837 14.3128 12.3193 14.4894 11.8929C14.666 11.4666 14.7122 10.9974 14.6222 10.5448C14.5321 10.0922 14.3099 9.67641 13.9836 9.35009C13.6573 9.02376 13.2415 8.80153 12.7889 8.7115C12.3362 8.62147 11.8671 8.66768 11.4407 8.84428C11.0144 9.02089 10.65 9.31996 10.3936 9.70367C10.1372 10.0874 10.0003 10.5385 10.0003 11C10.0003 11.6188 10.2462 12.2123 10.6837 12.6499C11.1213 13.0875 11.7148 13.3333 12.3337 13.3333ZM12.3337 10C12.5314 10 12.7248 10.0587 12.8892 10.1685C13.0537 10.2784 13.1819 10.4346 13.2575 10.6173C13.3332 10.8 13.353 11.0011 13.3144 11.1951C13.2759 11.3891 13.1806 11.5673 13.0408 11.7071C12.9009 11.847 12.7227 11.9422 12.5288 11.9808C12.3348 12.0194 12.1337 11.9996 11.951 11.9239C11.7682 11.8482 11.6121 11.72 11.5022 11.5556C11.3923 11.3911 11.3337 11.1978 11.3337 11C11.3337 10.7348 11.439 10.4804 11.6266 10.2929C11.8141 10.1054 12.0684 10 12.3337 10ZM17.667 15.3333C17.2055 15.3333 16.7544 15.4702 16.3707 15.7266C15.9869 15.983 15.6879 16.3474 15.5113 16.7737C15.3347 17.2001 15.2885 17.6693 15.3785 18.1219C15.4685 18.5745 15.6908 18.9903 16.0171 19.3166C16.3434 19.6429 16.7592 19.8651 17.2118 19.9552C17.6644 20.0452 18.1336 19.999 18.5599 19.8224C18.9863 19.6458 19.3507 19.3467 19.6071 18.963C19.8635 18.5793 20.0003 18.1282 20.0003 17.6667C20.0003 17.0478 19.7545 16.4543 19.3169 16.0168C18.8793 15.5792 18.2858 15.3333 17.667 15.3333ZM17.667 18.6667C17.4692 18.6667 17.2759 18.608 17.1114 18.4981C16.947 18.3883 16.8188 18.2321 16.7431 18.0494C16.6674 17.8666 16.6476 17.6656 16.6862 17.4716C16.7248 17.2776 16.82 17.0994 16.9599 16.9596C17.0997 16.8197 17.2779 16.7245 17.4719 16.6859C17.6659 16.6473 17.867 16.6671 18.0497 16.7428C18.2324 16.8185 18.3886 16.9466 18.4985 17.1111C18.6083 17.2755 18.667 17.4689 18.667 17.6667C18.667 17.9319 18.5616 18.1862 18.3741 18.3738C18.1866 18.5613 17.9322 18.6667 17.667 18.6667ZM20.1603 8.84C20.1052 8.78477 20.0397 8.74095 19.9677 8.71105C19.8956 8.68116 19.8184 8.66577 19.7403 8.66577C19.6623 8.66577 19.585 8.68116 19.513 8.71105C19.4409 8.74095 19.3754 8.78477 19.3203 8.84L9.84033 18.32C9.73032 18.4323 9.66818 18.5828 9.66699 18.74C9.66681 18.8575 9.70152 18.9724 9.7667 19.0701C9.83188 19.1679 9.92462 19.244 10.0331 19.289C10.1417 19.334 10.2611 19.3458 10.3763 19.3228C10.4915 19.2998 10.5973 19.2432 10.6803 19.16L20.1603 9.68C20.2156 9.62489 20.2594 9.55942 20.2893 9.48735C20.3192 9.41528 20.3346 9.33803 20.3346 9.26C20.3346 9.18198 20.3192 9.10472 20.2893 9.03265C20.2594 8.96058 20.2156 8.89511 20.1603 8.84Z" fill="white"/>
</svg>
