<svg width="12" height="12" viewBox="0 0 12 12" fill="none" xmlns="http://www.w3.org/2000/svg">
<g clip-path="url(#clip0_385_13)">
<path d="M6.92263 8.63349L5.29163 10.2645C4.81809 10.7254 4.18214 10.9813 3.52136 10.9769C2.86058 10.9724 2.22811 10.708 1.76079 10.2408C1.29347 9.77364 1.02888 9.14125 1.02426 8.48047C1.01965 7.81969 1.27538 7.18366 1.73613 6.70999L3.36713 5.07749C3.46089 4.98367 3.51353 4.85645 3.51348 4.72382C3.51344 4.59118 3.4607 4.464 3.36688 4.37024C3.27306 4.27649 3.14584 4.22385 3.01321 4.22389C2.88057 4.22394 2.75339 4.27667 2.65963 4.37049L1.02913 6.00299C0.370268 6.66219 0.000253965 7.55612 0.000488393 8.48813C0.00072282 9.42014 0.371187 10.3139 1.03038 10.9727C1.68958 11.6316 2.58351 12.0016 3.51552 12.0014C4.44753 12.0012 5.34127 11.6307 6.00013 10.9715L7.63113 9.34049C7.72221 9.24619 7.77261 9.11989 7.77147 8.98879C7.77033 8.85769 7.71775 8.73229 7.62504 8.63958C7.53234 8.54688 7.40693 8.4943 7.27583 8.49316C7.14474 8.49202 7.01843 8.54241 6.92413 8.63349H6.92263Z" fill="#282828"/>
<path d="M10.9722 1.0305C10.6469 0.702904 10.2597 0.443136 9.83326 0.266245C9.40678 0.0893538 8.94944 -0.00114349 8.48773 -2.93841e-06C8.02627 -0.0012288 7.56914 0.0890361 7.14277 0.265573C6.71641 0.442109 6.32926 0.701415 6.00373 1.0285L4.37023 2.66C4.27641 2.75375 4.22368 2.88094 4.22363 3.01357C4.22359 3.14621 4.27623 3.27343 4.36998 3.36725C4.46374 3.46107 4.59092 3.5138 4.72356 3.51385C4.85619 3.5139 4.98341 3.46125 5.07723 3.3675L6.70973 1.7365C6.94251 1.50232 7.21943 1.31665 7.52445 1.19023C7.82948 1.06381 8.15655 0.999148 8.48673 0.999997C8.98387 1.00016 9.46979 1.14771 9.88308 1.424C10.2964 1.70028 10.6185 2.0929 10.8086 2.55221C10.9988 3.01152 11.0486 3.51691 10.9516 4.00449C10.8546 4.49206 10.6152 4.93994 10.2637 5.2915L8.63273 6.9225C8.53891 7.01632 8.48621 7.14357 8.48621 7.27625C8.48621 7.40893 8.53891 7.53618 8.63273 7.63C8.72655 7.72382 8.8538 7.77653 8.98648 7.77653C9.11917 7.77653 9.24641 7.72382 9.34023 7.63L10.9712 6C11.6293 5.34055 11.9989 4.44705 11.9991 3.51545C11.9993 2.58386 11.63 1.69021 10.9722 1.0305Z" fill="#282828"/>
<path d="M7.1463 4.14651L4.1463 7.14651C4.09854 7.19263 4.06045 7.2478 4.03425 7.3088C4.00804 7.36981 3.99425 7.43542 3.99367 7.50181C3.99309 7.56819 4.00575 7.63403 4.03089 7.69548C4.05603 7.75693 4.09315 7.81276 4.1401 7.8597C4.18705 7.90665 4.24287 7.94378 4.30432 7.96892C4.36577 7.99406 4.43161 8.00671 4.498 8.00613C4.56439 8.00555 4.63 7.99176 4.691 7.96556C4.752 7.93935 4.80717 7.90126 4.8533 7.85351L7.8533 4.85351C7.94438 4.7592 7.99477 4.6329 7.99363 4.5018C7.99249 4.37071 7.93991 4.2453 7.84721 4.1526C7.7545 4.05989 7.6291 4.00731 7.498 4.00617C7.3669 4.00503 7.2406 4.05543 7.1463 4.14651Z" fill="#282828"/>
</g>
<defs>
<clipPath id="clip0_385_13">
<rect width="12" height="12" fill="white"/>
</clipPath>
</defs>
</svg>
