<svg width="30" height="30" viewBox="0 0 30 30" fill="none" xmlns="http://www.w3.org/2000/svg">
<circle cx="15" cy="15" r="15" fill="#FF7442"/>
<g clip-path="url(#clip0_449_5)">
<path d="M15.0001 7C13.7364 7.00014 12.4906 7.29966 11.365 7.87404C10.2393 8.44841 9.26569 9.2813 8.52395 10.3045C7.7822 11.3276 7.2934 12.512 7.09759 13.7605C6.90178 15.0089 7.00453 16.2861 7.39743 17.4872C7.79032 18.6883 8.46218 19.7792 9.35797 20.6707C10.2538 21.5621 11.348 22.2286 12.551 22.6156C13.754 23.0026 15.0316 23.0991 16.2791 22.8972C17.5267 22.6953 18.7086 22.2007 19.7281 21.454L18.9388 20.3793C17.7298 21.2646 16.2577 21.7168 14.7602 21.6629C13.2627 21.609 11.827 21.0521 10.6848 20.0821C9.54257 19.1121 8.76046 17.7856 8.46464 16.3166C8.16883 14.8476 8.37656 13.3217 9.05432 11.9853C9.73208 10.6488 10.8403 9.57965 12.2003 8.95031C13.5602 8.32098 15.0925 8.16817 16.55 8.51654C18.0074 8.86491 19.305 9.69414 20.2333 10.8704C21.1617 12.0467 21.6667 13.5015 21.6668 15V16.3333C21.6668 16.687 21.5263 17.0261 21.2763 17.2761C21.0262 17.5262 20.6871 17.6667 20.3335 17.6667C19.9798 17.6667 19.6407 17.5262 19.3906 17.2761C19.1406 17.0261 19.0001 16.687 19.0001 16.3333V15C19.0034 14.0589 18.6758 13.1465 18.0747 12.4223C17.4735 11.6982 16.6371 11.2083 15.7114 11.0382C14.7857 10.8682 13.8298 11.0288 13.0105 11.492C12.1912 11.9553 11.5608 12.6916 11.2293 13.5725C10.8979 14.4533 10.8865 15.4226 11.1971 16.311C11.5077 17.1994 12.1207 17.9505 12.9288 18.4328C13.7369 18.9152 14.6888 19.0983 15.6183 18.9501C16.5477 18.8019 17.3954 18.3318 18.0135 17.622C18.2977 18.1398 18.7464 18.5481 19.2887 18.7824C19.8309 19.0168 20.4358 19.0637 21.0077 18.9159C21.5796 18.7681 22.086 18.434 22.4468 17.9663C22.8076 17.4986 23.0023 16.924 23.0001 16.3333V15C22.9978 12.879 22.1542 10.8455 20.6544 9.34568C19.1546 7.84589 17.1211 7.00229 15.0001 7V7ZM15.0001 17.6667C14.4727 17.6667 13.9571 17.5103 13.5186 17.2173C13.0801 16.9242 12.7383 16.5078 12.5364 16.0205C12.3346 15.5332 12.2818 14.997 12.3847 14.4798C12.4876 13.9625 12.7416 13.4873 13.1145 13.1144C13.4874 12.7414 13.9626 12.4875 14.4799 12.3846C14.9972 12.2817 15.5333 12.3345 16.0206 12.5363C16.5079 12.7382 16.9244 13.0799 17.2174 13.5185C17.5104 13.957 17.6668 14.4726 17.6668 15C17.6668 15.7072 17.3858 16.3855 16.8857 16.8856C16.3856 17.3857 15.7074 17.6667 15.0001 17.6667Z" fill="white"/>
</g>
<defs>
<clipPath id="clip0_449_5">
<rect width="16" height="16" fill="white" transform="translate(7 7)"/>
</clipPath>
</defs>
</svg>
