<svg width="50" height="50" viewBox="0 0 50 50" fill="none" xmlns="http://www.w3.org/2000/svg">
<g clip-path="url(#clip0_312_180)">
<path d="M37.4876 4.76247C34.9447 2.49069 31.8304 0.955353 28.4799 0.321703C25.1294 -0.311948 21.6696 -0.0199252 18.4727 1.16634C15.2758 2.35261 12.4629 4.38821 10.3368 7.05408C8.21065 9.71995 6.85174 12.9151 6.4063 16.2958C6.00626 19.2601 6.3262 22.2771 7.33905 25.0915C8.3519 27.906 10.0278 30.435 12.2251 32.4646C13.5838 33.6561 14.6802 35.1169 15.4448 36.7544C16.2094 38.3919 16.6255 40.1703 16.6667 41.9771V42.3125C16.6689 44.3506 17.4796 46.3047 18.9208 47.7459C20.362 49.1871 22.316 49.9978 24.3542 50H25.6459C27.6841 49.9978 29.6381 49.1871 31.0793 47.7459C32.5205 46.3047 33.3312 44.3506 33.3334 42.3125V41.1687C33.3646 39.5718 33.7404 38.0004 34.4351 36.5621C35.1297 35.1238 36.1269 33.8526 37.3584 32.8354C39.3554 31.0863 40.958 28.9328 42.06 26.5176C43.162 24.1024 43.7382 21.4806 43.7504 18.826C43.7626 16.1713 43.2105 13.5443 42.1309 11.119C41.0512 8.69381 39.4684 6.52568 37.4876 4.7583V4.76247ZM25.6459 45.8333H24.3542C23.4208 45.8322 22.5259 45.4609 21.8658 44.8009C21.2058 44.1408 20.8345 43.2459 20.8334 42.3125C20.8334 42.3125 20.8188 41.7708 20.8167 41.6666H29.1667V42.3125C29.1656 43.2459 28.7943 44.1408 28.1343 44.8009C27.4742 45.4609 26.5793 45.8322 25.6459 45.8333ZM34.6042 29.7062C32.2322 31.7636 30.5192 34.4744 29.6792 37.5H27.0834V22.5333C28.2978 22.104 29.3499 21.3099 30.0957 20.2598C30.8415 19.2096 31.2447 17.9547 31.2501 16.6666C31.2501 16.1141 31.0306 15.5842 30.6399 15.1935C30.2492 14.8028 29.7193 14.5833 29.1667 14.5833C28.6142 14.5833 28.0843 14.8028 27.6936 15.1935C27.3029 15.5842 27.0834 16.1141 27.0834 16.6666C27.0834 17.2192 26.8639 17.7491 26.4732 18.1398C26.0825 18.5305 25.5526 18.75 25.0001 18.75C24.4475 18.75 23.9176 18.5305 23.5269 18.1398C23.1362 17.7491 22.9167 17.2192 22.9167 16.6666C22.9167 16.1141 22.6972 15.5842 22.3065 15.1935C21.9158 14.8028 21.3859 14.5833 20.8334 14.5833C20.2809 14.5833 19.751 14.8028 19.3603 15.1935C18.9695 15.5842 18.7501 16.1141 18.7501 16.6666C18.7554 17.9547 19.1586 19.2096 19.9044 20.2598C20.6502 21.3099 21.7023 22.104 22.9167 22.5333V37.5H20.1626C19.223 34.3942 17.4607 31.6004 15.0626 29.4146C13.027 27.5179 11.5766 25.0785 10.8823 22.3843C10.188 19.6901 10.2789 16.8535 11.1442 14.2093C12.0096 11.5651 13.6133 9.22362 15.766 7.46114C17.9188 5.69867 20.5308 4.58879 23.2938 4.26247C23.8666 4.19853 24.4425 4.16654 25.0188 4.16664C28.5971 4.156 32.0515 5.47627 34.7105 7.8708C36.2515 9.24497 37.4828 10.931 38.3229 12.8171C39.1629 14.7032 39.5924 16.7464 39.5829 18.8111C39.5735 20.8758 39.1253 22.9149 38.268 24.7932C37.4108 26.6716 36.164 28.3462 34.6105 29.7062H34.6042Z" fill="white"/>
</g>
<defs>
<clipPath id="clip0_312_180">
<rect width="50" height="50" fill="white"/>
</clipPath>
</defs>
</svg>
