<svg width="50" height="50" viewBox="0 0 50 50" fill="none" xmlns="http://www.w3.org/2000/svg">
<g clip-path="url(#clip0_311_148)">
<path d="M39.5833 2.08325H10.4167C7.65501 2.08656 5.00741 3.18509 3.05462 5.13788C1.10184 7.09067 0.00330804 9.73826 0 12.4999L0 29.1666C0.00330804 31.9283 1.10184 34.5759 3.05462 36.5286C5.00741 38.4814 7.65501 39.58 10.4167 39.5833H22.9167V43.7499H14.5833C14.0308 43.7499 13.5009 43.9694 13.1102 44.3601C12.7195 44.7508 12.5 45.2807 12.5 45.8333C12.5 46.3858 12.7195 46.9157 13.1102 47.3064C13.5009 47.6971 14.0308 47.9166 14.5833 47.9166H35.4167C35.9692 47.9166 36.4991 47.6971 36.8898 47.3064C37.2805 46.9157 37.5 46.3858 37.5 45.8333C37.5 45.2807 37.2805 44.7508 36.8898 44.3601C36.4991 43.9694 35.9692 43.7499 35.4167 43.7499H27.0833V39.5833H39.5833C42.345 39.58 44.9926 38.4814 46.9454 36.5286C48.8982 34.5759 49.9967 31.9283 50 29.1666V12.4999C49.9967 9.73826 48.8982 7.09067 46.9454 5.13788C44.9926 3.18509 42.345 2.08656 39.5833 2.08325ZM10.4167 6.24992H39.5833C41.2409 6.24992 42.8306 6.9084 44.0027 8.0805C45.1748 9.25261 45.8333 10.8423 45.8333 12.4999V27.0833H4.16667V12.4999C4.16667 10.8423 4.82515 9.25261 5.99725 8.0805C7.16935 6.9084 8.75906 6.24992 10.4167 6.24992ZM39.5833 35.4166H10.4167C9.12862 35.4113 7.87369 35.0081 6.82354 34.2622C5.7734 33.5164 4.97934 32.4643 4.55 31.2499H45.45C45.0207 32.4643 44.2266 33.5164 43.1764 34.2622C42.1263 35.0081 40.8714 35.4113 39.5833 35.4166Z" fill="white"/>
</g>
<defs>
<clipPath id="clip0_311_148">
<rect width="50" height="50" fill="white"/>
</clipPath>
</defs>
</svg>
