<svg width="104" height="44" viewBox="0 0 104 44" fill="none" xmlns="http://www.w3.org/2000/svg">
<path d="M8.76419 7.14819C14.9017 7.14819 16.8798 8.50787 16.8798 12.4751V20.9469C16.8798 23.558 18.0284 24.6652 20.6478 22.88L21.1877 23.6013C19.9268 25.2026 18.4776 26.4541 16.34 26.4541C13.0793 26.4541 12.2097 24.1675 12.2097 22.6997C10.5938 24.3443 7.97074 26.4541 5.38749 26.4541C2.11949 26.4541 0 24.8095 0 21.8413C0 15.5082 12.2097 15.2305 12.2097 11.9774C12.2097 8.97311 11.2061 8.58 8.90549 8.58C7.50698 8.58 6.46354 9.33016 6.46354 11.2597C6.46354 12.9403 5.2788 13.9429 3.59045 13.9429C1.90211 13.9429 0.898519 12.9403 0.898519 11.2597C0.898519 8.11475 4.73897 7.14819 8.76419 7.14819ZM12.2097 20.918V14.621C10.8438 16.1934 4.67013 17.1456 4.67013 20.9144C4.67013 22.5915 5.75705 23.5941 7.36206 23.5941C8.96708 23.5941 11.1337 21.8052 12.2097 20.918Z" fill="#FF7442"/>
<path d="M28.9084 21.8413C28.9084 24.0954 30.2381 25.0223 31.7815 25.0223H32.1438V25.7436H21.0138V25.0223H21.3761C22.9195 25.0223 24.2492 24.0954 24.2492 21.8413V6.22131C24.2492 3.96721 22.9195 3.04033 21.3761 3.04033H21.0138V2.50295L28.9084 0V21.8413Z" fill="#FF7442"/>
<path d="M44.8897 10.0082H40.216V20.9469C40.216 23.558 41.3681 24.6653 43.9876 22.88L44.5274 23.6013C43.2702 25.2098 41.7993 26.4613 39.6798 26.4613C36.419 26.4613 35.5495 24.2433 35.5495 22.0649V10.0082H32.3214V8.22295C35.8756 8.22295 37.5277 6.41968 38.6037 2.1459H40.5783L40.216 7.86591H44.8897V10.0082Z" fill="#FF7442"/>
<path d="M56.201 26.4541C50.4041 26.4541 46.147 23.0207 46.147 16.8029C46.147 10.9387 50.2048 7.14819 55.6611 7.14819C61.1175 7.14819 63.4036 10.1885 63.7659 14.1197L51.52 19.0174C52.3786 21.7692 54.6431 23.7708 57.6248 23.7708C61.1428 23.7708 63.1899 21.9675 64.9144 19.5187C63.7659 23.1649 60.9073 26.4541 56.201 26.4541ZM53.3025 15.8364C56.6792 14.4407 58.3748 13.0485 58.3748 11.2597C58.3748 9.81705 57.4763 8.93705 55.8604 8.93705C53.8858 8.93705 51.1903 10.1885 51.1903 16.7308L53.3025 15.8364Z" fill="#FF7442"/>
<path d="M75.5227 8.93705C73.5445 8.93705 71.0338 10.7403 71.0338 16.8029C71.0338 21.5203 73.4757 23.9511 77.3162 23.9511C80.1168 23.9511 82.1638 22.5085 83.7109 20.1967C82.5587 23.8429 79.653 26.4541 75.7003 26.4541C69.9034 26.4541 65.8238 23.0207 65.8238 16.8029C65.8238 10.9387 69.8816 7.14819 75.3416 7.14819C79.653 7.14819 82.6312 8.95147 82.6312 12.4751C82.6312 13.2336 82.3285 13.9611 81.7897 14.4974C81.2509 15.0338 80.5201 15.3351 79.7581 15.3351C78.9961 15.3351 78.2653 15.0338 77.7265 14.4974C77.1877 13.9611 76.885 13.2336 76.885 12.4751C76.885 10.7944 78.8596 8.93705 75.5227 8.93705Z" fill="#FF7442"/>
<path d="M94.3047 7.14819C100.373 7.14819 104 11.4761 104 16.8029C104 22.1298 100.377 26.4541 94.3047 26.4541C88.2325 26.4541 84.6058 22.1262 84.6058 16.8029C84.6058 11.4797 88.2325 7.14819 94.3047 7.14819ZM98.4314 23.9151C101.304 22.2705 100.478 18.48 98.1814 14.5849C95.8844 10.6898 93.0475 8.04262 90.1744 9.68721C87.3013 11.3318 88.1274 15.1223 90.4244 19.0643C92.7214 23.0062 95.5583 25.5597 98.4314 23.9151Z" fill="#FF7442"/>
<path d="M2.13397 37.3098V33.7574H2.60859V36.8626H3.9455V33.7574H4.42012V36.8626H5.75341V33.7574H6.22441V37.3098H2.13397Z" fill="white"/>
<path d="M7.60846 37.3098V33.7574H8.09757V35.4669L9.69172 33.7574H10.3402L8.66639 35.5318L10.5576 37.3098H9.85476L8.1012 35.6003V37.3098H7.60846Z" fill="white"/>
<path d="M12.7785 37.4072C12.4587 37.4168 12.1429 37.3341 11.8691 37.1692C11.6162 37.0061 11.4151 36.7747 11.2894 36.502C11.1568 36.1937 11.0884 35.8618 11.0884 35.5264C11.0884 35.191 11.1568 34.8591 11.2894 34.5508C11.4191 34.2833 11.6227 34.0581 11.8764 33.9016C12.1484 33.7393 12.4615 33.6579 12.7785 33.6672C13.0994 33.6581 13.4163 33.7408 13.6915 33.9053C13.944 34.0648 14.1442 34.2941 14.2676 34.5653C14.407 34.8695 14.4764 35.201 14.4705 35.5354C14.4771 35.8745 14.4078 36.2108 14.2676 36.52C14.1426 36.7903 13.9412 37.0184 13.6879 37.1764C13.413 37.3379 13.0975 37.418 12.7785 37.4072ZM12.7785 36.9456C12.947 36.9573 13.1157 36.9276 13.2699 36.859C13.4241 36.7904 13.5589 36.6852 13.6625 36.5525C13.8521 36.2441 13.9525 35.8897 13.9525 35.5282C13.9525 35.1667 13.8521 34.8123 13.6625 34.5039C13.5573 34.3737 13.4219 34.2708 13.2679 34.2042C13.1139 34.1377 12.946 34.1093 12.7785 34.1216C12.5453 34.1128 12.315 34.1758 12.1191 34.302C11.9432 34.4259 11.8082 34.5992 11.7315 34.7997C11.6444 35.0302 11.6014 35.2748 11.6046 35.521C11.585 35.8871 11.6897 36.2491 11.9017 36.5489C12.0045 36.6809 12.138 36.7861 12.2908 36.8552C12.4436 36.9243 12.611 36.9554 12.7785 36.9456Z" fill="white"/>
<path d="M15.3292 37.3098V36.8843C15.4267 36.9172 15.5324 36.9172 15.6299 36.8843C15.7014 36.8425 15.7564 36.7776 15.7857 36.7003C15.8224 36.5949 15.8491 36.4862 15.8654 36.3757C15.9016 36.1629 15.9342 35.9249 15.9632 35.6544C15.9922 35.3839 16.0175 35.1098 16.0393 34.7997C16.061 34.4895 16.0864 34.1397 16.1117 33.7646H18.5356V37.317H18.0537V34.219H16.561C16.561 34.4534 16.5284 34.6843 16.5067 34.9151C16.4849 35.1459 16.4668 35.3659 16.4451 35.5787C16.4233 35.7915 16.4016 35.9826 16.3798 36.1593C16.3581 36.3361 16.3291 36.4911 16.3038 36.621C16.2741 36.7842 16.2203 36.9422 16.1444 37.0898C16.1146 37.1451 16.0739 37.1937 16.0247 37.2327C15.9755 37.2718 15.9188 37.3005 15.8581 37.317C15.6837 37.3562 15.5024 37.3537 15.3292 37.3098Z" fill="white"/>
<path d="M22.7166 34.7131C22.7053 34.5893 22.676 34.4678 22.6297 34.3525C22.5355 34.1253 22.3635 33.9387 22.1442 33.8259C21.8871 33.6977 21.6018 33.6357 21.3145 33.6456C20.9751 33.6302 20.6393 33.721 20.3544 33.9052C20.105 34.0851 19.9298 34.3492 19.8617 34.6482L20.3326 34.7852C20.3849 34.5736 20.514 34.3886 20.695 34.2659C20.88 34.1498 21.0959 34.092 21.3145 34.1C21.4499 34.0857 21.5867 34.1008 21.7156 34.1444C21.8445 34.188 21.9623 34.259 22.0608 34.3525C22.2089 34.5549 22.2819 34.8021 22.2674 35.0521L21.9051 35.1026C21.6913 35.1279 21.4775 35.1567 21.2602 35.1928C21.0428 35.2288 20.8399 35.2649 20.6587 35.3082C20.4917 35.3496 20.3327 35.4178 20.1877 35.5102C20.0551 35.5939 19.9456 35.7091 19.8689 35.8456C19.7858 35.9968 19.7445 36.1673 19.7493 36.3397C19.7481 36.523 19.7956 36.7034 19.887 36.8626C19.9815 37.0279 20.1226 37.1621 20.2928 37.2485C20.5036 37.3504 20.7361 37.3999 20.9703 37.3928C21.2924 37.4019 21.6104 37.3194 21.8869 37.1547C22.0661 37.0406 22.2172 36.8877 22.329 36.7075V37.2954H22.7601V35.1026C22.7347 34.9836 22.7275 34.8429 22.7166 34.7131ZM22.2058 36.0656C22.1782 36.2388 22.1099 36.4032 22.0065 36.5452C21.8986 36.6877 21.7583 36.8026 21.5971 36.8806C21.409 36.9636 21.2049 37.0042 20.9993 36.9997C20.8406 37.0056 20.6828 36.9735 20.5392 36.9059C20.4336 36.8518 20.3465 36.7677 20.2892 36.6643C20.238 36.5726 20.2106 36.4697 20.2095 36.3649C20.2063 36.2519 20.2393 36.1407 20.3037 36.0475C20.3628 35.961 20.4424 35.8904 20.5355 35.842C20.628 35.7904 20.7266 35.7504 20.829 35.7229C20.9949 35.6793 21.163 35.6444 21.3326 35.6184C21.5174 35.5895 21.6949 35.5643 21.9014 35.5426L22.2637 35.5029C22.2637 35.5534 22.2637 35.6184 22.2637 35.6905C22.2604 35.8174 22.2409 35.9435 22.2058 36.0656Z" fill="white"/>
<path d="M4.97445 39.8344V43.3869H4.49983V40.6206L2.53613 43.3869H2.13397V39.8344H2.60859V42.5754L4.56867 39.8344H4.97445Z" fill="white"/>
<path d="M6.48889 43.3869V39.8344H6.97438V41.378H8.98881V39.8344H9.4743V43.3869H8.98881V41.8361H6.97438V43.3833L6.48889 43.3869Z" fill="white"/>
<path d="M10.9888 43.3869V39.8344H12.4597C12.5502 39.8298 12.6409 39.8298 12.7315 39.8344C12.8328 39.8419 12.9334 39.8576 13.0322 39.8813C13.2257 39.9307 13.396 40.0454 13.514 40.2059C13.6393 40.3747 13.7044 40.5803 13.6988 40.7902C13.7015 40.9058 13.6818 41.0209 13.6409 41.1292C13.6058 41.2264 13.5502 41.3149 13.4778 41.3889C13.4451 41.425 13.4087 41.4576 13.3691 41.4862C13.3324 41.5112 13.2937 41.5329 13.2532 41.5511C13.3336 41.5708 13.4105 41.6025 13.4814 41.6449C13.604 41.7161 13.7043 41.8197 13.7713 41.9443C13.8416 42.0879 13.8763 42.2462 13.8727 42.4059C13.8806 42.6183 13.8182 42.8273 13.6952 43.001C13.5778 43.1534 13.4137 43.2635 13.2278 43.3148C13.1342 43.3399 13.0383 43.3556 12.9416 43.3616H12.6518L10.9888 43.3869ZM11.4779 41.4033H12.4778H12.6699C12.7344 41.3978 12.7978 41.3832 12.8583 41.36C12.9643 41.3267 13.0537 41.2545 13.1083 41.158C13.1632 41.0612 13.1919 40.9518 13.1916 40.8407C13.1938 40.7253 13.1637 40.6117 13.1046 40.5125C13.0421 40.4179 12.9487 40.3479 12.8402 40.3141C12.7574 40.2851 12.6706 40.2693 12.5829 40.2672H12.409H11.4779V41.4033ZM11.4779 42.9757H12.63H12.8039C12.8728 42.9757 12.938 42.9757 12.9923 42.9433C13.0508 42.9307 13.1063 42.9067 13.1554 42.8726C13.2045 42.8386 13.2464 42.7952 13.2785 42.7449C13.3391 42.6461 13.3705 42.5324 13.3691 42.4167C13.3745 42.2764 13.3251 42.1394 13.2314 42.0344C13.1368 41.9318 13.0082 41.8666 12.8691 41.8505C12.818 41.8389 12.7658 41.8328 12.7133 41.8325H11.4815L11.4779 42.9757Z" fill="white"/>
<path d="M17.9994 41.7459H18.2602C18.2796 41.3768 18.2191 41.0078 18.0827 40.664C17.9725 40.3795 17.7747 40.1371 17.5175 39.9715C17.2477 39.8033 16.9335 39.7191 16.6154 39.7299C16.3028 39.7216 15.9942 39.8003 15.7241 39.9571C15.468 40.1138 15.2639 40.3421 15.1371 40.6135C14.9893 40.928 14.9174 41.2726 14.927 41.6197C14.92 41.9588 14.9933 42.2949 15.1408 42.6007C15.2713 42.8678 15.4763 43.092 15.7313 43.2462C16.0058 43.4054 16.3195 43.4854 16.6371 43.4771C16.9647 43.4833 17.287 43.3943 17.5646 43.221C17.8414 43.0495 18.0588 42.7978 18.1878 42.4997L17.753 42.3374C17.655 42.5461 17.4991 42.7225 17.3037 42.8459C17.1011 42.9657 16.869 43.0269 16.6335 43.0226C16.471 43.0326 16.3084 43.0053 16.1583 42.9428C16.0081 42.8802 15.8745 42.7842 15.7676 42.662C15.5716 42.4006 15.4661 42.0829 15.4668 41.7567H18.003L17.9994 41.7459ZM15.7494 40.5521C15.858 40.4282 15.9941 40.3311 16.1469 40.2685C16.2997 40.2059 16.465 40.1795 16.6298 40.1915C16.7875 40.1821 16.9451 40.2099 17.0898 40.2726C17.2346 40.3352 17.3625 40.431 17.4631 40.5521C17.6342 40.79 17.7335 41.0715 17.7494 41.3636H15.4596C15.4693 41.0698 15.5706 40.7862 15.7494 40.5521Z" fill="white"/>
<path d="M21.0645 43.4843C20.7435 43.4943 20.4263 43.4117 20.1515 43.2462C19.9018 43.085 19.7053 42.8542 19.5863 42.5826C19.4512 42.2743 19.3815 41.9416 19.3815 41.6052C19.3815 41.2689 19.4512 40.9362 19.5863 40.6279C19.7073 40.3573 19.9066 40.1287 20.1587 39.9715C20.4313 39.8073 20.7461 39.7258 21.0645 39.737C21.3979 39.729 21.726 39.8207 22.0065 40.0003C22.2692 40.1692 22.464 40.4245 22.5572 40.7216L22.079 40.8731C22.0029 40.6759 21.8659 40.508 21.6877 40.3934C21.4956 40.2768 21.275 40.2151 21.05 40.2151C20.825 40.2151 20.6044 40.2768 20.4123 40.3934C20.2377 40.5179 20.1041 40.6911 20.0283 40.8911C19.942 41.1218 19.899 41.3663 19.9015 41.6125C19.886 41.977 19.9903 42.3366 20.1986 42.6367C20.2996 42.7676 20.4314 42.8716 20.5825 42.9395C20.7336 43.0075 20.8991 43.0372 21.0645 43.0262C21.2828 43.0316 21.498 42.974 21.684 42.8603C21.8605 42.7415 21.9958 42.5715 22.0717 42.3734L22.5608 42.5177C22.4457 42.8122 22.242 43.0642 21.9775 43.239C21.7043 43.409 21.3865 43.4943 21.0645 43.4843Z" fill="white"/>
<path d="M24.7129 43.3869V40.2816H23.4485V39.8344H26.4665V40.2816H25.1984V43.3869H24.7129Z" fill="white"/>
<path d="M30.5207 39.8344V43.3869H30.0497V40.6206L28.0932 43.3869H27.6838V39.8344H28.1585V42.5754L30.1149 39.8344H30.5207Z" fill="white"/>
<path d="M35.1075 44V43.3869H32.0388V39.8344H32.5242V42.918H34.3901V39.8308H34.8756V42.9361H35.6002V44H35.1075Z" fill="white"/>
<path d="M39.5529 39.8344V43.3869H39.0783V40.6206L37.1219 43.3869H36.7125V39.8344H37.1871V42.5754L39.1472 39.8344H39.5529Z" fill="white"/>
<path d="M43.9079 39.8344V43.3869H43.4332V40.6207L41.4768 43.3869H41.0674V39.8344H41.542V42.5754L43.4985 39.8344H43.9079ZM42.5528 39.4125C42.401 39.4155 42.2515 39.3754 42.1217 39.2971C41.9947 39.2233 41.889 39.1181 41.8147 38.9918C41.7404 38.8654 41.7002 38.7221 41.6978 38.5757H42.1036C42.1036 38.6944 42.1509 38.8081 42.2352 38.892C42.3194 38.9758 42.4337 39.023 42.5528 39.023C42.672 39.023 42.7863 38.9758 42.8705 38.892C42.9548 38.8081 43.0021 38.6944 43.0021 38.5757H43.4043C43.4049 38.7254 43.3648 38.8725 43.2883 39.0013C43.2156 39.1295 43.1092 39.2355 42.9804 39.3079C42.8505 39.382 42.7024 39.4182 42.5528 39.4125Z" fill="white"/>
</svg>
