<svg width="24" height="24" viewBox="0 0 24 24" fill="none" xmlns="http://www.w3.org/2000/svg">
<path d="M13.25 23.25H8.25V8.25H13.25V10.75C14.3158 9.39407 15.932 8.58572 17.6562 8.54625C20.757 8.56346 23.259 11.0867 23.25 14.1875V23.25H18.25V14.8125C18.05 13.4158 16.8522 12.3795 15.4412 12.3825C14.8241 12.402 14.2416 12.6722 13.828 13.1308C13.4145 13.5893 13.2058 14.1966 13.25 14.8125V23.25ZM5.75 23.25H0.75V8.25H5.75V23.25ZM3.25 5.75C1.86929 5.75 0.75 4.63071 0.75 3.25C0.75 1.86929 1.86929 0.75 3.25 0.75C4.63071 0.75 5.75 1.86929 5.75 3.25C5.75 3.91304 5.48661 4.54893 5.01777 5.01777C4.54893 5.48661 3.91304 5.75 3.25 5.75Z" fill="white"/>
</svg>
