<svg width="24" height="24" viewBox="0 0 24 24" fill="none" xmlns="http://www.w3.org/2000/svg">
<path fill-rule="evenodd" clip-rule="evenodd" d="M7.19013 0.403008C8.43422 0.345735 8.83089 0.333008 12 0.333008C15.1691 0.333008 15.5657 0.346796 16.8088 0.403008C18.0518 0.45922 18.9003 0.657553 19.6427 0.944978C20.4201 1.23877 21.1254 1.69801 21.7088 2.29195C22.3027 2.87422 22.7609 3.57846 23.0536 4.35695C23.3421 5.09937 23.5394 5.94786 23.5966 7.18877C23.6539 8.43498 23.6666 8.83164 23.6666 11.9997C23.6666 15.1688 23.6529 15.5654 23.5966 16.8095C23.5404 18.0504 23.3421 18.8989 23.0536 19.6413C22.7609 20.4199 22.3019 21.1253 21.7088 21.7085C21.1254 22.3024 20.4201 22.7606 19.6427 23.0533C18.9003 23.3418 18.0518 23.5391 16.8109 23.5963C15.5657 23.6536 15.1691 23.6663 12 23.6663C8.83089 23.6663 8.43422 23.6526 7.19013 23.5963C5.94922 23.5401 5.10074 23.3418 4.35831 23.0533C3.57974 22.7605 2.87433 22.3016 2.29119 21.7085C1.69766 21.1258 1.23834 20.4208 0.945283 19.6424C0.657858 18.9 0.460586 18.0515 0.403313 16.8106C0.34604 15.5644 0.333313 15.1677 0.333313 11.9997C0.333313 8.83058 0.347101 8.43392 0.403313 7.19089C0.459525 5.94786 0.657858 5.09937 0.945283 4.35695C1.23878 3.57855 1.69844 2.87349 2.29225 2.29089C2.87457 1.69748 3.57927 1.23818 4.35725 0.944978C5.09968 0.657553 5.94816 0.460281 7.18907 0.403008H7.19013ZM16.7144 2.50301C15.4841 2.4468 15.115 2.43513 12 2.43513C8.88498 2.43513 8.51589 2.4468 7.28558 2.50301C6.14755 2.55498 5.53028 2.74483 5.11877 2.90498C4.57468 3.1171 4.18543 3.36846 3.7771 3.7768C3.39003 4.15337 3.09214 4.61179 2.90528 5.11846C2.74513 5.52998 2.55528 6.14725 2.50331 7.28528C2.4471 8.51558 2.43543 8.88467 2.43543 11.9997C2.43543 15.1147 2.4471 15.4838 2.50331 16.7141C2.55528 17.8521 2.74513 18.4694 2.90528 18.8809C3.09195 19.3868 3.38998 19.846 3.7771 20.2226C4.15362 20.6097 4.61286 20.9077 5.11877 21.0944C5.53028 21.2545 6.14755 21.4444 7.28558 21.4963C8.51589 21.5526 8.88392 21.5642 12 21.5642C15.116 21.5642 15.4841 21.5526 16.7144 21.4963C17.8524 21.4444 18.4697 21.2545 18.8812 21.0944C19.4253 20.8822 19.8145 20.6309 20.2229 20.2226C20.61 19.846 20.908 19.3868 21.0947 18.8809C21.2548 18.4694 21.4447 17.8521 21.4966 16.7141C21.5529 15.4838 21.5645 15.1147 21.5645 11.9997C21.5645 8.88467 21.5529 8.51558 21.4966 7.28528C21.4447 6.14725 21.2548 5.52998 21.0947 5.11846C20.8826 4.57437 20.6312 4.18513 20.2229 3.7768C19.8463 3.38975 19.3878 3.09187 18.8812 2.90498C18.4697 2.74483 17.8524 2.55498 16.7144 2.50301ZM10.5098 15.5962C11.342 15.9426 12.2687 15.9894 13.1316 15.7285C13.9944 15.4676 14.7399 14.9152 15.2408 14.1657C15.7416 13.4162 15.9667 12.5161 15.8776 11.619C15.7885 10.722 15.3907 9.88374 14.7523 9.2474C14.3452 8.84063 13.8531 8.52917 13.3112 8.33544C12.7694 8.1417 12.1913 8.07051 11.6187 8.12699C11.046 8.18348 10.493 8.36623 9.99947 8.66208C9.50592 8.95794 9.0841 9.35955 8.76439 9.838C8.44468 10.3164 8.23503 10.8598 8.15053 11.429C8.06602 11.9982 8.10878 12.5791 8.2757 13.1298C8.44263 13.6805 8.72958 14.1873 9.1159 14.6138C9.50221 15.0403 9.97828 15.3758 10.5098 15.5962ZM7.75968 7.75937C8.31652 7.20253 8.97759 6.76081 9.70514 6.45945C10.4327 6.15809 11.2125 6.00298 12 6.00298C12.7875 6.00298 13.5673 6.15809 14.2948 6.45945C15.0224 6.76081 15.6834 7.20253 16.2403 7.75937C16.7971 8.31622 17.2388 8.97729 17.5402 9.70484C17.8416 10.4324 17.9967 11.2122 17.9967 11.9997C17.9967 12.7872 17.8416 13.567 17.5402 14.2945C17.2388 15.0221 16.7971 15.6831 16.2403 16.24C15.1157 17.3646 13.5904 17.9964 12 17.9964C10.4096 17.9964 8.88427 17.3646 7.75968 16.24C6.63508 15.1154 6.00329 13.5901 6.00329 11.9997C6.00329 10.4093 6.63508 8.88397 7.75968 7.75937ZM19.3266 6.89604C19.4646 6.76587 19.5751 6.60934 19.6515 6.43571C19.7279 6.26208 19.7687 6.07488 19.7715 5.88521C19.7742 5.69553 19.7389 5.50722 19.6676 5.33144C19.5963 5.15566 19.4904 4.99597 19.3563 4.86184C19.2222 4.7277 19.0625 4.62184 18.8867 4.55053C18.7109 4.47921 18.5226 4.44389 18.3329 4.44666C18.1433 4.44942 17.9561 4.49022 17.7824 4.56663C17.6088 4.64303 17.4523 4.7535 17.3221 4.89149C17.0689 5.15986 16.9303 5.51632 16.9357 5.88521C16.9411 6.25409 17.09 6.60636 17.3509 6.86723C17.6118 7.12811 17.964 7.27704 18.3329 7.28242C18.7018 7.28779 19.0583 7.14919 19.3266 6.89604Z" fill="white"/>
</svg>
