<svg width="123" height="52" viewBox="0 0 123 52" fill="none" xmlns="http://www.w3.org/2000/svg">
<path d="M10.3653 8.44824C17.6241 8.44824 19.9637 10.0551 19.9637 14.7437V24.7558C19.9637 27.8417 21.322 29.1502 24.42 27.0404L25.0585 27.8928C23.5673 29.7853 21.8533 31.2643 19.3252 31.2643C15.4687 31.2643 14.4403 28.562 14.4403 26.8273C12.5292 28.7709 9.42693 31.2643 6.37175 31.2643C2.50671 31.2643 0 29.3207 0 25.8128C0 18.3282 14.4403 18 14.4403 14.1555C14.4403 10.605 13.2534 10.1404 10.5324 10.1404C8.87845 10.1404 7.64438 11.0269 7.64438 13.3073C7.64438 15.2935 6.2432 16.4784 4.2464 16.4784C2.24961 16.4784 1.06267 15.2935 1.06267 13.3073C1.06267 9.59054 5.60474 8.44824 10.3653 8.44824ZM14.4403 24.7217V17.2797C12.8249 19.1381 5.52332 20.2633 5.52332 24.7174C5.52332 26.6994 6.80881 27.8843 8.70705 27.8843C10.6053 27.8843 13.1677 25.7702 14.4403 24.7217Z" fill="#FF7442"/>
<path d="M34.1897 25.8125C34.1897 28.4764 35.7623 29.5718 37.5877 29.5718H38.0162V30.4243H24.8528V29.5718H25.2813C27.1067 29.5718 28.6793 28.4764 28.6793 25.8125V7.35246C28.6793 4.68852 27.1067 3.59311 25.2813 3.59311H24.8528V2.95803L34.1897 0V25.8125Z" fill="#FF7442"/>
<path d="M53.0909 11.8279H47.5633V24.7555C47.5633 27.8414 48.9259 29.1499 52.0239 27.0401L52.6624 27.8925C51.1755 29.7935 49.4358 31.2725 46.9291 31.2725C43.0726 31.2725 42.0442 28.6512 42.0442 26.0768V11.8279H38.2263V9.7181C42.4299 9.7181 44.3838 7.58695 45.6564 2.53613H47.9918L47.5633 9.29613H53.0909V11.8279Z" fill="#FF7442"/>
<path d="M66.4684 31.2643C59.6125 31.2643 54.5776 27.2066 54.5776 19.8584C54.5776 12.9279 59.3768 8.44824 65.83 8.44824C72.2831 8.44824 74.9869 12.0414 75.4154 16.6873L60.9322 22.4755C61.9478 25.7276 64.6259 28.0932 68.1524 28.0932C72.3131 28.0932 74.7341 25.962 76.7738 23.0679C75.4154 27.3771 72.0346 31.2643 66.4684 31.2643ZM63.0404 18.7161C67.034 17.0666 69.0394 15.4214 69.0394 13.3073C69.0394 11.6023 67.9767 10.5623 66.0656 10.5623C63.7303 10.5623 60.5423 12.0414 60.5423 19.7732L63.0404 18.7161Z" fill="#FF7442"/>
<path d="M89.3202 10.5623C86.9806 10.5623 84.0112 12.6935 84.0112 19.8584C84.0112 25.4335 86.8992 28.3063 91.4413 28.3063C94.7536 28.3063 97.1746 26.6014 99.0043 23.8692C97.6416 28.1784 94.2051 31.2643 89.5302 31.2643C82.6742 31.2643 77.8494 27.2066 77.8494 19.8584C77.8494 12.9279 82.6485 8.44824 89.106 8.44824C94.2051 8.44824 97.7273 10.5794 97.7273 14.7437C97.7273 15.6401 97.3693 16.4998 96.7321 17.1337C96.0948 17.7675 95.2306 18.1237 94.3294 18.1237C93.4282 18.1237 92.5639 17.7675 91.9266 17.1337C91.2894 16.4998 90.9314 15.6401 90.9314 14.7437C90.9314 12.7574 93.2667 10.5623 89.3202 10.5623Z" fill="#FF7442"/>
<path d="M111.533 8.44824C118.711 8.44824 123 13.563 123 19.8584C123 26.1538 118.715 31.2643 111.533 31.2643C104.352 31.2643 100.063 26.1496 100.063 19.8584C100.063 13.5673 104.352 8.44824 111.533 8.44824ZM116.414 28.2637C119.812 26.32 118.835 21.8404 116.118 17.2371C113.402 12.6338 110.047 9.50529 106.649 11.4489C103.251 13.3925 104.228 17.8722 106.944 22.5309C109.661 27.1896 113.016 30.2073 116.414 28.2637Z" fill="#FF7442"/>
<path d="M2.52393 44.0939V39.8955H3.08526V43.5653H4.66641V39.8955H5.22774V43.5653H6.80461V39.8955H7.36165V44.0939H2.52393Z" fill="white"/>
<path d="M8.99854 44.0939V39.8955H9.57701V41.9158L11.4624 39.8955H12.2294L10.2497 41.9926L12.4865 44.0939H11.6552L9.58129 42.0735V44.0939H8.99854Z" fill="white"/>
<path d="M15.1132 44.2089C14.7349 44.2203 14.3614 44.1226 14.0376 43.9276C13.7385 43.7349 13.5007 43.4614 13.3521 43.1391C13.1952 42.7747 13.1143 42.3825 13.1143 41.9861C13.1143 41.5898 13.1952 41.1975 13.3521 40.8332C13.5054 40.517 13.7462 40.2508 14.0462 40.066C14.3679 39.8741 14.7382 39.778 15.1132 39.7889C15.4927 39.7782 15.8674 39.8758 16.193 40.0702C16.4916 40.2587 16.7283 40.5298 16.8743 40.8502C17.0392 41.2099 17.1212 41.6016 17.1143 41.9968C17.122 42.3976 17.0401 42.795 16.8743 43.1604C16.7265 43.4798 16.4882 43.7494 16.1887 43.9361C15.8636 44.127 15.4905 44.2216 15.1132 44.2089ZM15.1132 43.6634C15.3124 43.6772 15.512 43.642 15.6943 43.561C15.8766 43.48 16.0361 43.3556 16.1587 43.1988C16.3829 42.8344 16.5016 42.4155 16.5016 41.9883C16.5016 41.5611 16.3829 41.1422 16.1587 40.7778C16.0343 40.6239 15.8741 40.5023 15.692 40.4236C15.5098 40.3449 15.3112 40.3114 15.1132 40.326C14.8374 40.3155 14.565 40.3899 14.3333 40.5391C14.1252 40.6856 13.9656 40.8903 13.8748 41.1273C13.7719 41.3997 13.721 41.6888 13.7248 41.9797C13.7016 42.4124 13.8254 42.8403 14.0762 43.1945C14.1977 43.3506 14.3557 43.4749 14.5364 43.5566C14.7171 43.6382 14.915 43.6749 15.1132 43.6634Z" fill="white"/>
<path d="M18.1296 44.0932V43.5902C18.245 43.6292 18.37 43.6292 18.4853 43.5902C18.5699 43.5409 18.6349 43.4641 18.6695 43.3728C18.713 43.2482 18.7445 43.1197 18.7638 42.9892C18.8067 42.7377 18.8452 42.4564 18.8795 42.1368C18.9138 41.8171 18.9438 41.4932 18.9695 41.1266C18.9952 40.76 19.0252 40.3466 19.0552 39.9033H21.9218V44.1017H21.3519V40.4404H19.5865C19.5865 40.7174 19.548 40.9902 19.5223 41.263C19.4965 41.5358 19.4751 41.7958 19.4494 42.0473C19.4237 42.2987 19.398 42.5246 19.3723 42.7335C19.3466 42.9423 19.3123 43.1256 19.2823 43.2791C19.2472 43.472 19.1836 43.6587 19.0938 43.8332C19.0586 43.8984 19.0105 43.9559 18.9523 44.002C18.8941 44.0482 18.827 44.0821 18.7552 44.1017C18.5489 44.1479 18.3346 44.145 18.1296 44.0932Z" fill="white"/>
<path d="M26.8668 41.0244C26.8534 40.8781 26.8188 40.7345 26.7639 40.5981C26.6526 40.3297 26.4491 40.1092 26.1897 39.9758C25.8857 39.8244 25.5483 39.7511 25.2085 39.7627C24.807 39.7445 24.41 39.8519 24.073 40.0696C23.778 40.2822 23.5708 40.5943 23.4902 40.9476L24.0473 41.1096C24.1091 40.8594 24.2617 40.6409 24.4758 40.4958C24.6946 40.3586 24.95 40.2903 25.2085 40.2998C25.3686 40.2828 25.5304 40.3008 25.6829 40.3523C25.8353 40.4038 25.9746 40.4877 26.0912 40.5981C26.2663 40.8373 26.3527 41.1296 26.3354 41.425L25.9069 41.4847C25.6541 41.5145 25.4013 41.5486 25.1442 41.5912C24.8871 41.6339 24.6472 41.6765 24.4329 41.7276C24.2354 41.7766 24.0473 41.8572 23.8759 41.9663C23.719 42.0653 23.5894 42.2015 23.4988 42.3627C23.4005 42.5415 23.3517 42.743 23.3574 42.9467C23.3559 43.1634 23.412 43.3766 23.5202 43.5647C23.632 43.7601 23.7988 43.9186 24.0001 44.0208C24.2494 44.1412 24.5244 44.1997 24.8014 44.1912C25.1823 44.2021 25.5584 44.1045 25.8855 43.9099C26.0974 43.775 26.2761 43.5944 26.4083 43.3814V44.0762H26.9182V41.4847C26.8882 41.344 26.8796 41.1778 26.8668 41.0244ZM26.2626 42.6227C26.23 42.8275 26.1492 43.0217 26.0269 43.1896C25.8993 43.3579 25.7333 43.4938 25.5427 43.586C25.3203 43.684 25.0789 43.7321 24.8357 43.7267C24.648 43.7337 24.4613 43.6957 24.2915 43.6158C24.1666 43.552 24.0637 43.4525 23.9958 43.3303C23.9354 43.222 23.903 43.1004 23.9016 42.9765C23.8978 42.8429 23.9368 42.7115 24.013 42.6014C24.0829 42.4992 24.1771 42.4157 24.2872 42.3585C24.3966 42.2975 24.5132 42.2502 24.6343 42.2178C24.8305 42.1662 25.0293 42.125 25.2299 42.0942C25.4484 42.0601 25.6584 42.0303 25.9026 42.0047L26.3311 41.9578C26.3311 42.0175 26.3311 42.0942 26.3311 42.1794C26.3272 42.3295 26.3041 42.4784 26.2626 42.6227Z" fill="white"/>
<path d="M5.88334 47.0771V51.2755H5.32201V48.0063L2.99956 51.2755H2.52393V47.0771H3.08526V50.3165L5.40342 47.0771H5.88334Z" fill="white"/>
<path d="M7.67432 51.2755V47.0771H8.2485V48.9014H10.6309V47.0771H11.2051V51.2755H10.6309V49.4427H8.2485V51.2712L7.67432 51.2755Z" fill="white"/>
<path d="M12.9963 51.2757V47.0774H14.736C14.8431 47.0719 14.9504 47.0719 15.0574 47.0774C15.1773 47.0862 15.2962 47.1047 15.4131 47.1328C15.642 47.1911 15.8434 47.3267 15.983 47.5164C16.1312 47.7159 16.2081 47.9589 16.2015 48.2069C16.2047 48.3436 16.1814 48.4796 16.1329 48.6075C16.0915 48.7224 16.0257 48.827 15.9401 48.9144C15.9014 48.9571 15.8583 48.9957 15.8116 49.0295C15.7682 49.059 15.7223 49.0847 15.6744 49.1062C15.7695 49.1295 15.8605 49.1669 15.9444 49.217C16.0893 49.3012 16.208 49.4237 16.2872 49.5708C16.3703 49.7406 16.4115 49.9276 16.4072 50.1164C16.4165 50.3674 16.3427 50.6144 16.1972 50.8197C16.0584 50.9997 15.8643 51.1299 15.6444 51.1905C15.5338 51.2202 15.4204 51.2387 15.3059 51.2459H14.9631L12.9963 51.2757ZM13.5748 48.9315H14.7575H14.9846C15.0609 48.925 15.1359 48.9078 15.2074 48.8803C15.3328 48.8409 15.4385 48.7556 15.503 48.6416C15.568 48.5272 15.602 48.398 15.6016 48.2666C15.6042 48.1303 15.5686 47.9959 15.4988 47.8787C15.4248 47.767 15.3143 47.6842 15.186 47.6443C15.0881 47.61 14.9854 47.5913 14.8817 47.5888H14.676H13.5748V48.9315ZM13.5748 50.7898H14.9374H15.1431C15.2245 50.7898 15.3017 50.7898 15.3659 50.7515C15.4351 50.7366 15.5007 50.7082 15.5588 50.668C15.6169 50.6277 15.6664 50.5764 15.7044 50.517C15.776 50.4003 15.8131 50.2659 15.8116 50.1292C15.8179 49.9633 15.7595 49.8015 15.6487 49.6774C15.5367 49.5561 15.3847 49.479 15.2202 49.46C15.1598 49.4463 15.098 49.4391 15.036 49.4387H13.5791L13.5748 50.7898Z" fill="white"/>
<path d="M21.2877 49.3358H21.5963C21.6192 48.8996 21.5476 48.4635 21.3863 48.0572C21.256 47.721 21.022 47.4345 20.7178 47.2388C20.3987 47.04 20.0272 46.9406 19.6509 46.9532C19.2813 46.9435 18.9162 47.0365 18.5968 47.2217C18.2939 47.407 18.0525 47.6768 17.9026 47.9975C17.7278 48.3692 17.6427 48.7764 17.6541 49.1867C17.6458 49.5875 17.7324 49.9846 17.9069 50.346C18.0613 50.6618 18.3037 50.9266 18.6054 51.109C18.93 51.2971 19.301 51.3916 19.6766 51.3818C20.064 51.3891 20.4453 51.284 20.7735 51.0791C21.1009 50.8764 21.3581 50.579 21.5106 50.2267L20.9964 50.0349C20.8805 50.2815 20.6961 50.49 20.465 50.6358C20.2254 50.7774 19.9509 50.8497 19.6723 50.8447C19.4802 50.8565 19.2879 50.8242 19.1103 50.7503C18.9327 50.6764 18.7746 50.5629 18.6482 50.4185C18.4164 50.1095 18.2916 49.7341 18.2925 49.3486H21.292L21.2877 49.3358ZM18.6268 47.925C18.7552 47.7785 18.9161 47.6637 19.0969 47.5898C19.2776 47.5158 19.4731 47.4846 19.668 47.4988C19.8544 47.4877 20.0408 47.5205 20.2121 47.5946C20.3833 47.6687 20.5346 47.7819 20.6536 47.925C20.8559 48.2061 20.9733 48.5388 20.9921 48.884H18.284C18.2955 48.5367 18.4153 48.2016 18.6268 47.925Z" fill="white"/>
<path d="M24.9128 51.3907C24.5331 51.4026 24.1581 51.3049 23.833 51.1094C23.5377 50.9188 23.3052 50.646 23.1645 50.3251C23.0048 49.9607 22.9224 49.5675 22.9224 49.17C22.9224 48.7725 23.0048 48.3793 23.1645 48.0149C23.3076 47.6951 23.5434 47.4251 23.8416 47.2392C24.1639 47.0452 24.5362 46.9489 24.9128 46.9621C25.3071 46.9527 25.6952 47.061 26.0269 47.2733C26.3375 47.4729 26.568 47.7746 26.6782 48.1258L26.1126 48.3048C26.0227 48.0718 25.8606 47.8732 25.6498 47.7379C25.4227 47.6001 25.1617 47.5272 24.8957 47.5272C24.6296 47.5272 24.3687 47.6001 24.1415 47.7379C23.935 47.885 23.777 48.0897 23.6873 48.3261C23.5852 48.5987 23.5344 48.8876 23.5373 49.1785C23.519 49.6093 23.6423 50.0343 23.8887 50.389C24.0081 50.5437 24.1641 50.6666 24.3427 50.7469C24.5214 50.8272 24.7172 50.8624 24.9128 50.8494C25.171 50.8558 25.4254 50.7877 25.6455 50.6533C25.8542 50.5129 26.0143 50.312 26.104 50.0779L26.6825 50.2484C26.5464 50.5965 26.3054 50.8942 25.9926 51.1008C25.6695 51.3017 25.2936 51.4025 24.9128 51.3907Z" fill="white"/>
<path d="M29.2279 51.2755V47.6057H27.7324V47.0771H31.3018V47.6057H29.8021V51.2755H29.2279Z" fill="white"/>
<path d="M36.0966 47.0771V51.2755H35.5395V48.0063L33.2257 51.2755H32.7415V47.0771H33.3028V50.3165L35.6167 47.0771H36.0966Z" fill="white"/>
<path d="M41.5215 52.0005V51.2759H37.8921V47.0775H38.4663V50.7218H40.673V47.0732H41.2472V50.7431H42.1042V52.0005H41.5215Z" fill="white"/>
<path d="M46.7791 47.0771V51.2755H46.2178V48.0063L43.9039 51.2755H43.4197V47.0771H43.981V50.3165L46.2992 47.0771H46.7791Z" fill="white"/>
<path d="M51.9295 47.0774V51.2758H51.3681V48.0066L49.0543 51.2758H48.5701V47.0774H49.1314V50.3167L51.4453 47.0774H51.9295ZM50.3269 46.5787C50.1474 46.5822 49.9705 46.5349 49.817 46.4423C49.6668 46.3551 49.5417 46.2308 49.4539 46.0815C49.3661 45.9322 49.3185 45.7628 49.3157 45.5898H49.7956C49.7956 45.73 49.8515 45.8645 49.9512 45.9636C50.0508 46.0627 50.186 46.1184 50.3269 46.1184C50.4678 46.1184 50.603 46.0627 50.7026 45.9636C50.8023 45.8645 50.8582 45.73 50.8582 45.5898H51.3339C51.3346 45.7667 51.2872 45.9405 51.1968 46.0928C51.1108 46.2443 50.9849 46.3696 50.8325 46.4551C50.679 46.5427 50.5038 46.5855 50.3269 46.5787Z" fill="white"/>
</svg>
