<svg width="16" height="16" viewBox="0 0 16 16" fill="none" xmlns="http://www.w3.org/2000/svg">
<g clip-path="url(#clip0_337_594)">
<path d="M9.52043 9.67245C9.24902 10.7626 7.41433 10.1733 6.81934 10.0254L7.30104 8.09328C7.89603 8.24162 9.80407 8.53585 9.52043 9.67245Z" fill="#000000"/>
<path d="M9.79183 6.84461C9.54446 7.83572 8.01704 7.33201 7.52148 7.20853L7.95836 5.45616C8.45432 5.57964 10.0498 5.8103 9.79183 6.84461Z" fill="#000000"/>
<path d="M9.93404 0.239394C5.64929 -0.829144 1.3083 1.77944 0.240575 6.06542C-0.828371 10.3506 1.77981 14.6916 6.06416 15.7605C10.3501 16.8295 14.6911 14.2209 15.7592 9.9353C16.8282 5.64933 14.22 1.30793 9.93404 0.239394ZM6.3535 5.39707C6.3645 5.21042 6.30011 4.97528 5.94434 4.88644C5.9582 4.87747 5.30697 4.72791 5.30697 4.72791L5.54089 3.7906L6.75124 4.09298L6.75043 4.09787C6.93219 4.1427 7.11965 4.1859 7.31119 4.2295L7.67104 2.78807L8.54804 3.00692L8.19553 4.42023C8.43067 4.47402 8.66785 4.52822 8.89851 4.58568L9.24858 3.18175L10.1264 3.40059L9.76696 4.84242C10.875 5.22428 11.6856 5.79645 11.5263 6.86091C11.4109 7.64011 10.9789 8.01748 10.4056 8.14952C11.1929 8.55949 11.5935 9.18831 11.2116 10.2784C10.7381 11.6323 9.6125 11.7464 8.11565 11.4631L7.75254 12.9188L6.87473 12.7L7.23336 11.2643C7.00595 11.2076 6.77325 11.1477 6.53404 11.0825L6.17418 12.5251L5.29719 12.3063L5.6607 10.8478C5.45571 10.7952 5.24747 10.7398 5.03474 10.6864L3.89243 10.4015L4.32808 9.39696C4.32808 9.39696 4.97483 9.56894 4.96627 9.5563C5.21487 9.61743 5.3249 9.45564 5.3685 9.34765L6.3535 5.39707Z" fill="#000000"/>
</g>
<defs>
<clipPath id="clip0_337_594">
<rect width="16" height="16" fill="#000000"/>
</clipPath>
</defs>
</svg>
