<svg width="16" height="16" viewBox="0 0 16 16" fill="none" xmlns="http://www.w3.org/2000/svg">
<g clip-path="url(#clip0_337_600)">
<path d="M15.3333 14.6667H2C1.82319 14.6667 1.65362 14.5964 1.5286 14.4714C1.40357 14.3464 1.33333 14.1768 1.33333 14V0.666667C1.33333 0.489856 1.2631 0.320286 1.13807 0.195262C1.01305 0.0702379 0.843478 0 0.666667 0C0.489856 0 0.320286 0.0702379 0.195262 0.195262C0.0702379 0.320286 0 0.489856 0 0.666667L0 14C0 14.5304 0.210714 15.0391 0.585786 15.4142C0.960859 15.7893 1.46957 16 2 16H15.3333C15.5101 16 15.6797 15.9298 15.8047 15.8047C15.9298 15.6797 16 15.5101 16 15.3333C16 15.1565 15.9298 14.987 15.8047 14.8619C15.6797 14.7369 15.5101 14.6667 15.3333 14.6667Z" fill="black"/>
<path d="M9.99992 13.3333C10.1767 13.3333 10.3463 13.2631 10.4713 13.1381C10.5963 13.0131 10.6666 12.8435 10.6666 12.6667V8C10.6666 7.82319 10.5963 7.65362 10.4713 7.5286C10.3463 7.40357 10.1767 7.33334 9.99992 7.33334C9.82311 7.33334 9.65354 7.40357 9.52851 7.5286C9.40349 7.65362 9.33325 7.82319 9.33325 8V12.6667C9.33325 12.8435 9.40349 13.0131 9.52851 13.1381C9.65354 13.2631 9.82311 13.3333 9.99992 13.3333Z" fill="black"/>
<path d="M4.66667 13.3333C4.84348 13.3333 5.01305 13.2631 5.13807 13.1381C5.2631 13.0131 5.33333 12.8435 5.33333 12.6667V8C5.33333 7.82319 5.2631 7.65362 5.13807 7.5286C5.01305 7.40357 4.84348 7.33334 4.66667 7.33334C4.48986 7.33334 4.32029 7.40357 4.19526 7.5286C4.07024 7.65362 4 7.82319 4 8V12.6667C4 12.8435 4.07024 13.0131 4.19526 13.1381C4.32029 13.2631 4.48986 13.3333 4.66667 13.3333Z" fill="black"/>
<path d="M12.6667 13.3333C12.8435 13.3333 13.013 13.2631 13.1381 13.1381C13.2631 13.013 13.3333 12.8435 13.3333 12.6667V4.66667C13.3333 4.48986 13.2631 4.32029 13.1381 4.19526C13.013 4.07024 12.8435 4 12.6667 4C12.4899 4 12.3203 4.07024 12.1953 4.19526C12.0702 4.32029 12 4.48986 12 4.66667V12.6667C12 12.8435 12.0702 13.013 12.1953 13.1381C12.3203 13.2631 12.4899 13.3333 12.6667 13.3333Z" fill="black"/>
<path d="M7.33341 13.3333C7.51023 13.3333 7.67979 13.2631 7.80482 13.1381C7.92984 13.013 8.00008 12.8435 8.00008 12.6667V4.66667C8.00008 4.48986 7.92984 4.32029 7.80482 4.19526C7.67979 4.07024 7.51023 4 7.33341 4C7.1566 4 6.98703 4.07024 6.86201 4.19526C6.73699 4.32029 6.66675 4.48986 6.66675 4.66667V12.6667C6.66675 12.8435 6.73699 13.013 6.86201 13.1381C6.98703 13.2631 7.1566 13.3333 7.33341 13.3333Z" fill="black"/>
</g>
<defs>
<clipPath id="clip0_337_600">
<rect width="16" height="16" fill="white"/>
</clipPath>
</defs>
</svg>
