<svg width="16" height="16" viewBox="0 0 16 16" fill="none" xmlns="http://www.w3.org/2000/svg">
<g clip-path="url(#clip0_337_608)">
<path d="M15.8906 5.86267C15.7542 5.4286 15.4817 5.04995 15.1135 4.78269C14.7453 4.51544 14.3008 4.37378 13.8459 4.37867H10.9332L10.0486 1.62134C9.90943 1.18731 9.63606 0.808681 9.26786 0.540049C8.89966 0.271416 8.45566 0.126663 7.99988 0.126663C7.54411 0.126663 7.1001 0.271416 6.7319 0.540049C6.36371 0.808681 6.09034 1.18731 5.95122 1.62134L5.06655 4.37867H2.15388C1.70038 4.37932 1.25868 4.52326 0.891871 4.78994C0.525063 5.05662 0.251912 5.4324 0.111432 5.8636C-0.0290475 6.2948 -0.0296693 6.75936 0.109656 7.19093C0.24898 7.6225 0.521125 7.99901 0.887218 8.26667L3.25788 10L2.35655 12.7913C2.21089 13.2243 2.20905 13.6927 2.35129 14.1267C2.49353 14.5608 2.77225 14.9373 3.14588 15.2C3.51312 15.4712 3.95815 15.6165 4.41465 15.6142C4.87116 15.6119 5.31471 15.4622 5.67922 15.1873L7.99988 13.4793L10.3212 15.1853C10.6878 15.455 11.1304 15.6014 11.5855 15.6036C12.0405 15.6059 12.4845 15.4637 12.8537 15.1977C13.2229 14.9316 13.4982 14.5554 13.6401 14.123C13.7819 13.6906 13.783 13.2244 13.6432 12.7913L12.7419 10L15.1152 8.26667C15.4855 8.00237 15.7608 7.62587 15.9005 7.1929C16.0401 6.75993 16.0366 6.29351 15.8906 5.86267ZM14.3286 7.19001L11.5659 9.20934C11.4524 9.29212 11.368 9.40862 11.3246 9.54223C11.2813 9.67583 11.2813 9.81971 11.3246 9.95334L12.3746 13.2C12.4277 13.3647 12.4272 13.542 12.3733 13.7063C12.3193 13.8707 12.2146 14.0138 12.0742 14.1149C11.9338 14.2161 11.7649 14.2701 11.5919 14.2692C11.4189 14.2683 11.2506 14.2126 11.1112 14.11L8.39455 12.11C8.28013 12.026 8.14186 11.9806 7.99988 11.9806C7.85791 11.9806 7.71964 12.026 7.60522 12.11L4.88855 14.11C4.74927 14.2139 4.58051 14.2708 4.40673 14.2724C4.23295 14.274 4.06318 14.2202 3.92204 14.1188C3.7809 14.0174 3.67572 13.8737 3.62175 13.7085C3.56778 13.5433 3.56783 13.3652 3.62188 13.2L4.67522 9.95334C4.7185 9.81971 4.71846 9.67583 4.67513 9.54223C4.63179 9.40862 4.54736 9.29212 4.43388 9.20934L1.67122 7.19001C1.53209 7.08814 1.42871 6.9449 1.37585 6.78077C1.32298 6.61663 1.32334 6.43999 1.37687 6.27607C1.4304 6.11215 1.53437 5.96934 1.67391 5.86804C1.81346 5.76674 1.98145 5.71213 2.15388 5.71201H5.55388C5.69503 5.712 5.83253 5.6672 5.94658 5.58405C6.06064 5.50091 6.14536 5.38371 6.18855 5.24934L7.22188 2.02867C7.27493 1.86386 7.37889 1.72013 7.51882 1.61817C7.65875 1.51621 7.82742 1.46128 8.00055 1.46128C8.17369 1.46128 8.34236 1.51621 8.48228 1.61817C8.62221 1.72013 8.72618 1.86386 8.77922 2.02867L9.81255 5.24934C9.85574 5.38371 9.94046 5.50091 10.0545 5.58405C10.1686 5.6672 10.3061 5.712 10.4472 5.71201H13.8472C14.0197 5.71213 14.1876 5.76674 14.3272 5.86804C14.4667 5.96934 14.5707 6.11215 14.6242 6.27607C14.6778 6.43999 14.6781 6.61663 14.6253 6.78077C14.5724 6.9449 14.469 7.08814 14.3299 7.19001H14.3286Z" fill="black"/>
</g>
<defs>
<clipPath id="clip0_337_608">
<rect width="16" height="16" fill="white"/>
</clipPath>
</defs>
</svg>
