<svg width="30" height="30" viewBox="0 0 30 30" fill="none" xmlns="http://www.w3.org/2000/svg">
<circle cx="15" cy="15" r="15" fill="#FF7442"/>
<g clip-path="url(#clip0_516_4)">
<path d="M19.6667 12.616V11.6667C19.6667 10.429 19.175 9.242 18.2998 8.36684C17.4247 7.49167 16.2377 7 15 7C13.7623 7 12.5753 7.49167 11.7002 8.36684C10.825 9.242 10.3333 10.429 10.3333 11.6667V12.616C9.73958 12.8751 9.23421 13.3017 8.87901 13.8435C8.52381 14.3853 8.3342 15.0188 8.33334 15.6667V19.6667C8.3344 20.5504 8.68593 21.3976 9.31082 22.0225C9.93572 22.6474 10.7829 22.9989 11.6667 23H18.3333C19.2171 22.9989 20.0643 22.6474 20.6892 22.0225C21.3141 21.3976 21.6656 20.5504 21.6667 19.6667V15.6667C21.6658 15.0188 21.4762 14.3853 21.121 13.8435C20.7658 13.3017 20.2604 12.8751 19.6667 12.616V12.616ZM11.6667 11.6667C11.6667 10.7826 12.0179 9.93477 12.643 9.30964C13.2681 8.68452 14.116 8.33333 15 8.33333C15.8841 8.33333 16.7319 8.68452 17.357 9.30964C17.9822 9.93477 18.3333 10.7826 18.3333 11.6667V12.3333H11.6667V11.6667ZM20.3333 19.6667C20.3333 20.1971 20.1226 20.7058 19.7476 21.0809C19.3725 21.456 18.8638 21.6667 18.3333 21.6667H11.6667C11.1362 21.6667 10.6275 21.456 10.2525 21.0809C9.87739 20.7058 9.66668 20.1971 9.66668 19.6667V15.6667C9.66668 15.1362 9.87739 14.6275 10.2525 14.2525C10.6275 13.8774 11.1362 13.6667 11.6667 13.6667H18.3333C18.8638 13.6667 19.3725 13.8774 19.7476 14.2525C20.1226 14.6275 20.3333 15.1362 20.3333 15.6667V19.6667Z" fill="white"/>
<path d="M15 16.3333C14.8232 16.3333 14.6536 16.4035 14.5286 16.5285C14.4036 16.6535 14.3333 16.8231 14.3333 16.9999V18.3333C14.3333 18.5101 14.4036 18.6796 14.5286 18.8047C14.6536 18.9297 14.8232 18.9999 15 18.9999C15.1768 18.9999 15.3464 18.9297 15.4714 18.8047C15.5964 18.6796 15.6667 18.5101 15.6667 18.3333V16.9999C15.6667 16.8231 15.5964 16.6535 15.4714 16.5285C15.3464 16.4035 15.1768 16.3333 15 16.3333Z" fill="white"/>
</g>
<defs>
<clipPath id="clip0_516_4">
<rect width="16" height="16" fill="white" transform="translate(7 7)"/>
</clipPath>
</defs>
</svg>
