<svg width="30" height="30" viewBox="0 0 30 30" fill="none" xmlns="http://www.w3.org/2000/svg">
<circle cx="15" cy="15" r="15" fill="#FF7442"/>
<g clip-path="url(#clip0_451_7)">
<path d="M12.0032 23C10.7963 22.9992 9.63049 22.562 8.72079 21.769C7.81109 20.9759 7.21891 19.8806 7.05353 18.6852C6.88815 17.4897 7.16072 16.2748 7.82096 15.2646C8.48119 14.2544 9.48453 13.5171 10.6458 13.1887C11.4899 12.947 12.3834 12.9359 13.2332 13.1567L18.5052 7.886C18.785 7.60419 19.1181 7.38076 19.485 7.22866C19.8519 7.07657 20.2453 6.99885 20.6425 7C21.2675 7.00053 21.8668 7.24906 22.3088 7.69103C22.7508 8.133 22.9993 8.73229 22.9998 9.35733C23.0009 9.75453 22.9231 10.148 22.7712 10.515C22.6192 10.8819 22.396 11.2151 22.1145 11.4953L21.6665 11.9433C21.4158 12.1923 21.0771 12.3324 20.7238 12.3333H19.6665V13C19.6665 13.3536 19.526 13.6928 19.276 13.9428C19.0259 14.1929 18.6868 14.3333 18.3332 14.3333H17.6665V15.3907C17.667 15.5658 17.6327 15.7393 17.5656 15.9011C17.4986 16.063 17.4001 16.2099 17.2758 16.3333L16.8425 16.7667C17.0645 17.6161 17.0536 18.5096 16.8112 19.3533C16.5383 20.3147 15.9847 21.1727 15.2212 21.8175C14.4578 22.4623 13.5193 22.8645 12.5258 22.9727C12.3522 22.9907 12.1777 22.9998 12.0032 23ZM12.0032 14.3333C11.3206 14.3327 10.6514 14.5225 10.0709 14.8816C9.49037 15.2406 9.02161 15.7546 8.71736 16.3656C8.4131 16.9766 8.28544 17.6604 8.34874 18.34C8.41204 19.0196 8.66378 19.6681 9.07563 20.2124C9.48749 20.7567 10.0431 21.1753 10.6799 21.4209C11.3168 21.6666 12.0095 21.7296 12.6802 21.6029C13.3509 21.4762 13.9729 21.1648 14.4763 20.7038C14.9796 20.2428 15.3442 19.6504 15.5292 18.9933C15.7372 18.271 15.7138 17.5017 15.4625 16.7933C15.4215 16.675 15.4146 16.5476 15.4427 16.4255C15.4707 16.3035 15.5326 16.1918 15.6212 16.1033L16.3332 15.3907V14.3333C16.3332 13.9797 16.4736 13.6406 16.7237 13.3905C16.9737 13.1405 17.3129 13 17.6665 13H18.3332V12.3333C18.3332 11.9797 18.4736 11.6406 18.7237 11.3905C18.9737 11.1405 19.3129 11 19.6665 11H20.7238L21.1718 10.552C21.3291 10.3954 21.4538 10.2092 21.5387 10.0042C21.6237 9.79913 21.6671 9.57927 21.6665 9.35733C21.6663 9.08592 21.5585 8.82567 21.3666 8.63369C21.1748 8.44171 20.9146 8.33369 20.6432 8.33333C20.4211 8.33279 20.2011 8.37628 19.9959 8.46131C19.7907 8.54633 19.6044 8.67119 19.4478 8.82867L13.8938 14.382C13.8052 14.4706 13.6934 14.5324 13.5712 14.5603C13.4491 14.5883 13.3215 14.5812 13.2032 14.54C12.8165 14.4039 12.4097 14.334 11.9998 14.3333H12.0032ZM10.3332 19C10.3332 19.1319 10.3723 19.2607 10.4455 19.3704C10.5188 19.48 10.6229 19.5655 10.7447 19.6159C10.8665 19.6664 11.0006 19.6796 11.1299 19.6539C11.2592 19.6281 11.378 19.5646 11.4712 19.4714C11.5645 19.3782 11.628 19.2594 11.6537 19.1301C11.6794 19.0007 11.6662 18.8667 11.6157 18.7449C11.5653 18.6231 11.4798 18.5189 11.3702 18.4457C11.2606 18.3724 11.1317 18.3333 10.9998 18.3333C10.823 18.3333 10.6534 18.4036 10.5284 18.5286C10.4034 18.6536 10.3332 18.8232 10.3332 19Z" fill="white"/>
</g>
<defs>
<clipPath id="clip0_451_7">
<rect width="16" height="16" fill="white" transform="translate(7 7)"/>
</clipPath>
</defs>
</svg>
