<svg width="26" height="26" viewBox="0 0 26 26" fill="none" xmlns="http://www.w3.org/2000/svg">
<path d="M0.502441 13.0022C0.503896 19.1514 4.97544 24.3872 11.0487 25.3509V16.6147H7.87744V13.0022H11.0524V10.2522C10.9105 8.94911 11.3556 7.65043 12.267 6.70835C13.1784 5.76628 14.4616 5.27846 15.7687 5.37719C16.7069 5.39234 17.6427 5.4759 18.5687 5.62719V8.70094H16.9887C16.4447 8.6297 15.8979 8.80934 15.5022 9.18927C15.1064 9.5692 14.9047 10.1083 14.9537 10.6547V13.0022H18.4174L17.8637 16.6159H14.9537V25.3509C21.5218 24.3129 26.1276 18.3144 25.4343 11.701C24.7411 5.08765 18.9916 0.174601 12.351 0.521162C5.71039 0.867724 0.503497 6.35257 0.502441 13.0022Z" fill="white"/>
</svg>
