<svg width="21" height="21" viewBox="0 0 21 21" fill="none" xmlns="http://www.w3.org/2000/svg">
<path d="M2.75762 2.84927C2.75762 2.68583 2.69269 2.52909 2.57713 2.41352C2.46156 2.29796 2.30482 2.23303 2.14138 2.23303C1.97795 2.23303 1.8212 2.29796 1.70564 2.41352C1.59007 2.52909 1.52515 2.68583 1.52515 2.84927V18.0498C1.52515 18.3899 1.80122 18.666 2.14138 18.666H17.1365C17.2999 18.666 17.4566 18.6011 17.5722 18.4855C17.6878 18.3699 17.7527 18.2132 17.7527 18.0498C17.7527 17.8863 17.6878 17.7296 17.5722 17.614C17.4566 17.4984 17.2999 17.4335 17.1365 17.4335H2.75762V2.84927Z" fill="#D0D0D0"/>
<path d="M19.0098 6.98214C19.1187 6.86532 19.1779 6.71081 19.1751 6.55117C19.1723 6.39152 19.1076 6.2392 18.9947 6.12629C18.8818 6.01339 18.7295 5.94871 18.5699 5.9459C18.4102 5.94308 18.2557 6.00234 18.1389 6.11119L13.4391 10.811L10.3825 7.75449C10.267 7.63909 10.1104 7.57427 9.94705 7.57427C9.78375 7.57427 9.62713 7.63909 9.51158 7.75449L4.58169 12.6844C4.52115 12.7408 4.47259 12.8088 4.43891 12.8844C4.40523 12.96 4.38711 13.0416 4.38565 13.1244C4.3842 13.2071 4.39942 13.2893 4.43041 13.366C4.4614 13.4427 4.50753 13.5124 4.56605 13.571C4.62457 13.6295 4.69427 13.6756 4.771 13.7066C4.84773 13.7376 4.92992 13.7528 5.01267 13.7514C5.09541 13.7499 5.17701 13.7318 5.2526 13.6981C5.32819 13.6644 5.39622 13.6159 5.45264 13.5553L9.94705 9.06091L13.0036 12.1174C13.1191 12.2328 13.2758 12.2977 13.4391 12.2977C13.6024 12.2977 13.759 12.2328 13.8745 12.1174L19.0098 6.98214Z" fill="#D0D0D0"/>
</svg>
