<svg width="12" height="12" viewBox="0 0 12 12" fill="none" xmlns="http://www.w3.org/2000/svg">
<path d="M10.6665 5.33333H6.6665V1.33333C6.6665 1.15652 6.59627 0.986954 6.47124 0.86193C6.34622 0.736906 6.17665 0.666668 5.99984 0.666668C5.82303 0.666668 5.65346 0.736906 5.52843 0.86193C5.40341 0.986954 5.33317 1.15652 5.33317 1.33333V5.33333H1.33317C1.15636 5.33333 0.98679 5.40357 0.861766 5.5286C0.736742 5.65362 0.666504 5.82319 0.666504 6C0.666504 6.17681 0.736742 6.34638 0.861766 6.47141C0.98679 6.59643 1.15636 6.66667 1.33317 6.66667H5.33317V10.6667C5.33317 10.8435 5.40341 11.013 5.52843 11.1381C5.65346 11.2631 5.82303 11.3333 5.99984 11.3333C6.17665 11.3333 6.34622 11.2631 6.47124 11.1381C6.59627 11.013 6.6665 10.8435 6.6665 10.6667V6.66667H10.6665C10.8433 6.66667 11.0129 6.59643 11.1379 6.47141C11.2629 6.34638 11.3332 6.17681 11.3332 6C11.3332 5.82319 11.2629 5.65362 11.1379 5.5286C11.0129 5.40357 10.8433 5.33333 10.6665 5.33333Z" fill="white"/>
</svg>
