<svg width="25" height="25" viewBox="0 0 25 25" fill="none" xmlns="http://www.w3.org/2000/svg">
<path d="M7.2915 11.4583H9.37484V13.5417H7.2915V11.4583ZM7.2915 15.625H9.37484V17.7083H7.2915V15.625ZM11.4582 11.4583H13.5415V13.5417H11.4582V11.4583ZM11.4582 15.625H13.5415V17.7083H11.4582V15.625ZM15.6248 11.4583H17.7082V13.5417H15.6248V11.4583ZM15.6248 15.625H17.7082V17.7083H15.6248V15.625Z" fill="white"/>
<path d="M5.20833 22.9167H19.7917C20.9406 22.9167 21.875 21.9823 21.875 20.8333V6.25C21.875 5.10104 20.9406 4.16666 19.7917 4.16666H17.7083V2.08333H15.625V4.16666H9.375V2.08333H7.29167V4.16666H5.20833C4.05937 4.16666 3.125 5.10104 3.125 6.25V20.8333C3.125 21.9823 4.05937 22.9167 5.20833 22.9167ZM19.7917 8.33333L19.7927 20.8333H5.20833V8.33333H19.7917Z" fill="white"/>
</svg>
