<svg width="16" height="16" viewBox="0 0 16 16" fill="none" xmlns="http://www.w3.org/2000/svg">
<g clip-path="url(#clip0_640_275)">
<path d="M15.1109 8C15.1109 9.40644 14.6938 10.7813 13.9125 11.9507C13.1311 13.1201 12.0205 14.0316 10.7211 14.5698C9.4217 15.108 7.9919 15.2489 6.61248 14.9745C5.23306 14.7001 3.96598 14.0228 2.97147 13.0283C1.97696 12.0338 1.2997 10.7667 1.02531 9.38731C0.750929 8.00788 0.891753 6.57808 1.42998 5.27869C1.9682 3.97931 2.87965 2.8687 4.04906 2.08732C5.21848 1.30594 6.59334 0.888885 7.99979 0.888885C9.88577 0.888885 11.6945 1.63809 13.0281 2.97168C14.3617 4.30527 15.1109 6.11401 15.1109 8ZM11.3731 7.33333H8.66645V4.62666C8.66645 4.44985 8.59621 4.28028 8.47119 4.15526C8.34617 4.03023 8.1766 3.96 7.99979 3.96C7.82298 3.96 7.65341 4.03023 7.52838 4.15526C7.40336 4.28028 7.33312 4.44985 7.33312 4.62666V7.33333H4.62645C4.44964 7.33333 4.28007 7.40357 4.15505 7.52859C4.03002 7.65362 3.95979 7.82318 3.95979 8C3.95979 8.17681 4.03002 8.34638 4.15505 8.4714C4.28007 8.59642 4.44964 8.66666 4.62645 8.66666H7.33312V11.3733C7.33312 11.5501 7.40336 11.7197 7.52838 11.8447C7.65341 11.9698 7.82298 12.04 7.99979 12.04C8.1766 12.04 8.34617 11.9698 8.47119 11.8447C8.59621 11.7197 8.66645 11.5501 8.66645 11.3733V8.66666H11.3731C11.5499 8.66666 11.7195 8.59642 11.8445 8.4714C11.9695 8.34638 12.0398 8.17681 12.0398 8C12.0398 7.82318 11.9695 7.65362 11.8445 7.52859C11.7195 7.40357 11.5499 7.33333 11.3731 7.33333Z" fill="white"/>
</g>
<defs>
<clipPath id="clip0_640_275">
<rect width="16" height="16" fill="white"/>
</clipPath>
</defs>
</svg>
