<svg width="13" height="23" viewBox="0 0 13 23" fill="none" xmlns="http://www.w3.org/2000/svg">
<g clip-path="url(#clip0_640_247)">
<path d="M9.39797 10.4848L4.54641 9.06523C3.98489 8.90352 3.59407 8.37793 3.59407 7.79395C3.59407 7.06172 4.18704 6.46875 4.91926 6.46875H7.89758C8.44563 6.46875 8.98469 6.63496 9.43391 6.94043C9.70793 7.12461 10.0763 7.07969 10.3099 6.85059L11.8732 5.32324C12.1921 5.01328 12.1472 4.49668 11.7923 4.22266C10.6917 3.36016 9.31711 2.87949 7.90657 2.875V0.71875C7.90657 0.323437 7.58313 0 7.18782 0H5.75032C5.355 0 5.03157 0.323437 5.03157 0.71875V2.875H4.91926C2.05774 2.875 -0.242262 5.33223 0.0227775 8.24766C0.211449 10.3186 1.7927 12.0031 3.78723 12.5871L8.39172 13.9348C8.95325 14.101 9.34407 14.6221 9.34407 15.2061C9.34407 15.9383 8.7511 16.5312 8.01887 16.5312H5.04055C4.4925 16.5312 3.95344 16.365 3.50422 16.0596C3.2302 15.8754 2.86184 15.9203 2.62825 16.1494L1.06496 17.6768C0.74602 17.9867 0.790942 18.5033 1.14582 18.7773C2.24641 19.6398 3.62102 20.1205 5.03157 20.125V22.2812C5.03157 22.6766 5.355 23 5.75032 23H7.18782C7.58313 23 7.90657 22.6766 7.90657 22.2812V20.116C9.99993 20.0756 11.963 18.8313 12.6548 16.8502C13.6206 14.083 11.9989 11.2439 9.39797 10.4848V10.4848Z" fill="white"/>
</g>
<defs>
<clipPath id="clip0_640_247">
<rect width="12.9375" height="23" fill="white"/>
</clipPath>
</defs>
</svg>
