<svg width="23" height="23" viewBox="0 0 23 23" fill="none" xmlns="http://www.w3.org/2000/svg">
<path d="M2.396 2.63541C2.396 2.44478 2.32027 2.26197 2.18548 2.12717C2.05069 1.99238 1.86787 1.91666 1.67725 1.91666C1.48662 1.91666 1.3038 1.99238 1.16901 2.12717C1.03422 2.26197 0.958496 2.44478 0.958496 2.63541V20.3646C0.958496 20.7613 1.2805 21.0833 1.67725 21.0833H19.1668C19.3575 21.0833 19.5403 21.0076 19.6751 20.8728C19.8099 20.738 19.8856 20.5552 19.8856 20.3646C19.8856 20.1739 19.8099 19.9911 19.6751 19.8563C19.5403 19.7215 19.3575 19.6458 19.1668 19.6458H2.396V2.63541Z" fill="#213CC0"/>
<path d="M21.3515 7.45584C21.4785 7.31959 21.5476 7.13938 21.5443 6.95317C21.541 6.76697 21.4656 6.58931 21.3339 6.45762C21.2022 6.32593 21.0246 6.2505 20.8384 6.24721C20.6522 6.24393 20.4719 6.31305 20.3357 6.44001L14.854 11.9217L11.289 8.35667C11.1543 8.22207 10.9716 8.14647 10.7811 8.14647C10.5906 8.14647 10.408 8.22207 10.2732 8.35667L4.5232 14.1067C4.45258 14.1725 4.39594 14.2518 4.35666 14.34C4.31737 14.4282 4.29625 14.5233 4.29455 14.6198C4.29284 14.7163 4.3106 14.8122 4.34674 14.9017C4.38289 14.9912 4.4367 15.0725 4.50495 15.1408C4.5732 15.209 4.6545 15.2628 4.744 15.299C4.83349 15.3351 4.92936 15.3529 5.02586 15.3512C5.12237 15.3495 5.21755 15.3283 5.30571 15.289C5.39388 15.2498 5.47323 15.1931 5.53903 15.1225L10.7811 9.88042L14.3461 13.4454C14.4809 13.58 14.6636 13.6556 14.854 13.6556C15.0445 13.6556 15.2272 13.58 15.3619 13.4454L21.3515 7.45584Z" fill="#213CC0"/>
</svg>
