<svg width="286" height="286" viewBox="0 0 286 286" fill="none" xmlns="http://www.w3.org/2000/svg">
<path d="M286 143C286 179.67 271.913 214.939 246.649 241.518C221.386 268.097 186.877 283.956 150.254 285.816C113.631 287.676 77.6934 275.396 49.8668 251.514C22.0402 227.631 4.45172 193.971 0.736012 157.49L36.5507 153.842C39.331 181.139 52.4916 206.325 73.3129 224.196C94.1342 242.066 121.025 251.254 148.428 249.862C175.831 248.47 201.652 236.604 220.556 216.716C239.459 196.828 250 170.438 250 143H286Z" fill="#3E7CEB"/>
<path d="M0 143C1.75626e-06 122.911 4.23283 103.047 12.4227 84.7028C20.6125 66.3588 32.5756 49.9461 47.5323 36.5344L71.5661 63.3369C60.3747 73.3723 51.4233 85.6531 45.2953 99.379C39.1672 113.105 36 127.968 36 143L0 143Z" fill="#DB7FFE"/>
<path d="M58.8168 27.4051C79.6492 12.2336 104.194 2.97396 129.857 0.605288C155.519 -1.76339 181.344 2.84699 204.602 13.9489L189.094 46.4373C171.691 38.1303 152.367 34.6805 133.166 36.4529C113.964 38.2253 95.5977 45.1538 80.0097 56.5059L58.8168 27.4051Z" fill="#FED61C"/>
<path d="M216.73 20.4728C228.201 27.3758 238.647 35.8555 247.76 45.6636L221.387 70.1678C214.568 62.8289 206.752 56.484 198.169 51.3188L216.73 20.4728Z" fill="#F6B28D"/>
<path d="M255.89 55.2226C271.881 75.788 281.95 100.331 285.01 126.201L249.259 130.43C246.969 111.073 239.435 92.7085 227.47 77.3204L255.89 55.2226Z" fill="#FF901A"/>
</svg>
