<svg width="50" height="50" viewBox="0 0 50 50" fill="none" xmlns="http://www.w3.org/2000/svg">
<g clip-path="url(#clip0_312_174)">
<path d="M47.3188 8.49375C46.7327 7.7905 45.9991 7.2249 45.1699 6.83712C44.3407 6.44933 43.4362 6.24888 42.5208 6.25H8.8375L8.75 5.51875C8.57094 3.99879 7.84038 2.59736 6.69685 1.58016C5.55332 0.562965 4.07631 0.00071207 2.54583 0L2.08333 0C1.5308 0 1.0009 0.219493 0.610194 0.610194C0.219493 1.0009 0 1.5308 0 2.08333C0 2.63587 0.219493 3.16577 0.610194 3.55647C1.0009 3.94717 1.5308 4.16667 2.08333 4.16667H2.54583C3.05611 4.16673 3.54862 4.35408 3.92994 4.69316C4.31126 5.03224 4.55488 5.49948 4.61458 6.00625L7.48125 30.3813C7.77886 32.9162 8.99683 35.2537 10.904 36.95C12.8111 38.6463 15.2747 39.5834 17.8271 39.5833H39.5833C40.1359 39.5833 40.6658 39.3638 41.0565 38.9731C41.4472 38.5824 41.6667 38.0525 41.6667 37.5C41.6667 36.9475 41.4472 36.4176 41.0565 36.0269C40.6658 35.6362 40.1359 35.4167 39.5833 35.4167H17.8271C16.5376 35.413 15.2808 35.0107 14.229 34.2647C13.1772 33.5188 12.3819 32.4657 11.9521 31.25H36.7854C39.2277 31.2502 41.5924 30.3922 43.4663 28.8259C45.3402 27.2597 46.6042 25.0848 47.0375 22.6813L48.6729 13.6104C48.8362 12.7104 48.7995 11.7856 48.5655 10.9013C48.3314 10.0171 47.9058 9.19516 47.3188 8.49375ZM44.5833 12.8708L42.9458 21.9417C42.6857 23.3854 41.926 24.6917 40.7997 25.6317C39.6735 26.5717 38.2524 27.0856 36.7854 27.0833H11.2896L9.32917 10.4167H42.5208C42.8269 10.4148 43.1296 10.4805 43.4074 10.6089C43.6852 10.7373 43.9313 10.9253 44.1282 11.1596C44.3251 11.3939 44.4679 11.6687 44.5466 11.9645C44.6253 12.2602 44.6378 12.5697 44.5833 12.8708Z" fill="white"/>
<path d="M14.5833 50.0001C16.8845 50.0001 18.75 48.1346 18.75 45.8334C18.75 43.5322 16.8845 41.6667 14.5833 41.6667C12.2821 41.6667 10.4166 43.5322 10.4166 45.8334C10.4166 48.1346 12.2821 50.0001 14.5833 50.0001Z" fill="white"/>
<path d="M35.4167 50.0001C37.7178 50.0001 39.5833 48.1346 39.5833 45.8334C39.5833 43.5322 37.7178 41.6667 35.4167 41.6667C33.1155 41.6667 31.25 43.5322 31.25 45.8334C31.25 48.1346 33.1155 50.0001 35.4167 50.0001Z" fill="white"/>
</g>
<defs>
<clipPath id="clip0_312_174">
<rect width="50" height="50" fill="white"/>
</clipPath>
</defs>
</svg>
