<svg width="50" height="50" viewBox="0 0 50 50" fill="none" xmlns="http://www.w3.org/2000/svg">
<path d="M39.5833 8.33333H37.2917C36.8081 5.98211 35.5288 3.86947 33.6693 2.3515C31.8098 0.833521 29.4838 0.00303026 27.0833 0L22.9167 0C20.5162 0.00303026 18.1902 0.833521 16.3307 2.3515C14.4712 3.86947 13.1919 5.98211 12.7083 8.33333H10.4167C7.65501 8.33664 5.00741 9.43517 3.05462 11.388C1.10184 13.3407 0.00330804 15.9883 0 18.75L0 39.5833C0.00330804 42.345 1.10184 44.9926 3.05462 46.9454C5.00741 48.8982 7.65501 49.9967 10.4167 50H39.5833C42.345 49.9967 44.9926 48.8982 46.9454 46.9454C48.8982 44.9926 49.9967 42.345 50 39.5833V18.75C49.9967 15.9883 48.8982 13.3407 46.9454 11.388C44.9926 9.43517 42.345 8.33664 39.5833 8.33333ZM22.9167 4.16667H27.0833C28.3714 4.17201 29.6263 4.57517 30.6765 5.32102C31.7266 6.06686 32.5207 7.11894 32.95 8.33333H17.05C17.4793 7.11894 18.2734 6.06686 19.3235 5.32102C20.3737 4.57517 21.6286 4.17201 22.9167 4.16667ZM10.4167 12.5H39.5833C41.2409 12.5 42.8306 13.1585 44.0028 14.3306C45.1749 15.5027 45.8333 17.0924 45.8333 18.75V25H4.16667V18.75C4.16667 17.0924 4.82515 15.5027 5.99725 14.3306C7.16935 13.1585 8.75906 12.5 10.4167 12.5ZM39.5833 45.8333H10.4167C8.75906 45.8333 7.16935 45.1749 5.99725 44.0028C4.82515 42.8306 4.16667 41.2409 4.16667 39.5833V29.1667H22.9167V31.25C22.9167 31.8025 23.1362 32.3324 23.5269 32.7231C23.9176 33.1138 24.4475 33.3333 25 33.3333C25.5525 33.3333 26.0824 33.1138 26.4731 32.7231C26.8638 32.3324 27.0833 31.8025 27.0833 31.25V29.1667H45.8333V39.5833C45.8333 41.2409 45.1749 42.8306 44.0028 44.0028C42.8306 45.1749 41.2409 45.8333 39.5833 45.8333Z" fill="white"/>
</svg>
