<svg width="40" height="40" viewBox="0 0 40 40" fill="none" xmlns="http://www.w3.org/2000/svg">
<path d="M27.5 18.125H12.5C12.3342 18.125 12.1753 18.0592 12.0581 17.9419C11.9408 17.8247 11.875 17.6658 11.875 17.5C11.875 17.1685 11.7433 16.8505 11.5089 16.6161C11.2745 16.3817 10.9565 16.25 10.625 16.25C10.4592 16.25 10.3003 16.1842 10.1831 16.0669C10.0658 15.9497 10 15.7908 10 15.625V9.375C10 9.20924 10.0658 9.05027 10.1831 8.93306C10.3003 8.81585 10.4592 8.75 10.625 8.75C10.9565 8.75 11.2745 8.6183 11.5089 8.38388C11.7433 8.14946 11.875 7.83152 11.875 7.5C11.875 7.33424 11.9408 7.17527 12.0581 7.05806C12.1753 6.94085 12.3342 6.875 12.5 6.875H27.5C27.6658 6.875 27.8247 6.94085 27.9419 7.05806C28.0592 7.17527 28.125 7.33424 28.125 7.5C28.125 7.83152 28.2567 8.14946 28.4911 8.38388C28.7255 8.6183 29.0435 8.75 29.375 8.75C29.5408 8.75 29.6997 8.81585 29.8169 8.93306C29.9342 9.05027 30 9.20924 30 9.375V15.625C30 15.7908 29.9342 15.9497 29.8169 16.0669C29.6997 16.1842 29.5408 16.25 29.375 16.25C29.0435 16.25 28.7255 16.3817 28.4911 16.6161C28.2567 16.8505 28.125 17.1685 28.125 17.5C28.125 17.6658 28.0592 17.8247 27.9419 17.9419C27.8247 18.0592 27.6658 18.125 27.5 18.125ZM13.0438 16.875H26.9563C27.068 16.4432 27.2933 16.0491 27.6087 15.7337C27.9241 15.4183 28.3182 15.193 28.75 15.0812V9.91875C28.3182 9.80697 27.9241 9.58169 27.6087 9.26629C27.2933 8.95088 27.068 8.55682 26.9563 8.125H13.0438C12.932 8.55682 12.7067 8.95088 12.3913 9.26629C12.0759 9.58169 11.6818 9.80697 11.25 9.91875V15.0812C11.6818 15.193 12.0759 15.4183 12.3913 15.7337C12.7067 16.0491 12.932 16.4432 13.0438 16.875Z" fill="#FF7442"/>
<path d="M20 15.625C19.3819 15.625 18.7777 15.4417 18.2638 15.0983C17.7499 14.755 17.3494 14.2669 17.1129 13.6959C16.8764 13.1249 16.8145 12.4965 16.935 11.8903C17.0556 11.2842 17.3533 10.7273 17.7903 10.2903C18.2273 9.85325 18.7842 9.55563 19.3903 9.43505C19.9965 9.31447 20.6249 9.37635 21.1959 9.61288C21.7669 9.8494 22.255 10.2499 22.5983 10.7638C22.9417 11.2777 23.125 11.8819 23.125 12.5C23.125 13.3288 22.7958 14.1237 22.2097 14.7097C21.6237 15.2958 20.8288 15.625 20 15.625ZM20 10.625C19.6292 10.625 19.2666 10.735 18.9583 10.941C18.65 11.147 18.4096 11.4399 18.2677 11.7825C18.1258 12.1251 18.0887 12.5021 18.161 12.8658C18.2334 13.2295 18.412 13.5636 18.6742 13.8258C18.9364 14.0881 19.2705 14.2666 19.6342 14.339C19.9979 14.4113 20.3749 14.3742 20.7175 14.2323C21.0601 14.0904 21.353 13.85 21.559 13.5417C21.765 13.2334 21.875 12.8708 21.875 12.5C21.875 12.0027 21.6775 11.5258 21.3258 11.1742C20.9742 10.8225 20.4973 10.625 20 10.625ZM14.375 13.75C14.1278 13.75 13.8861 13.6767 13.6805 13.5393C13.475 13.402 13.3148 13.2068 13.2202 12.9784C13.1255 12.7499 13.1008 12.4986 13.149 12.2561C13.1972 12.0137 13.3163 11.7909 13.4911 11.6161C13.6659 11.4413 13.8887 11.3223 14.1311 11.274C14.3736 11.2258 14.6249 11.2505 14.8534 11.3452C15.0818 11.4398 15.277 11.6 15.4143 11.8055C15.5517 12.0111 15.625 12.2528 15.625 12.5C15.625 12.8315 15.4933 13.1495 15.2589 13.3839C15.0245 13.6183 14.7065 13.75 14.375 13.75ZM25.625 13.75C25.3778 13.75 25.1361 13.6767 24.9305 13.5393C24.725 13.402 24.5648 13.2068 24.4701 12.9784C24.3755 12.7499 24.3508 12.4986 24.399 12.2561C24.4473 12.0137 24.5663 11.7909 24.7411 11.6161C24.9159 11.4413 25.1387 11.3223 25.3811 11.274C25.6236 11.2258 25.8749 11.2505 26.1034 11.3452C26.3318 11.4398 26.527 11.6 26.6643 11.8055C26.8017 12.0111 26.875 12.2528 26.875 12.5C26.875 12.8315 26.7433 13.1495 26.5089 13.3839C26.2745 13.6183 25.9565 13.75 25.625 13.75ZM16.875 29.375H13.125C11.3016 29.375 9.55295 28.6507 8.26364 27.3614C6.97433 26.072 6.25 24.3234 6.25 22.5C6.25 22.3342 6.31585 22.1753 6.43306 22.0581C6.55027 21.9408 6.70924 21.875 6.875 21.875H10.625C12.4484 21.875 14.197 22.5993 15.4864 23.8886C16.7757 25.178 17.5 26.9266 17.5 28.75C17.5 28.9158 17.4342 29.0747 17.3169 29.1919C17.1997 29.3092 17.0408 29.375 16.875 29.375ZM7.5375 23.125C7.69118 24.4996 8.34594 25.7694 9.37667 26.6917C10.4074 27.6141 11.7418 28.1243 13.125 28.125H16.2125C16.0588 26.7504 15.4041 25.4806 14.3733 24.5583C13.3426 23.6359 12.0082 23.1257 10.625 23.125H7.5375ZM26.875 30.625H23.125C22.9592 30.625 22.8003 30.5592 22.6831 30.4419C22.5658 30.3247 22.5 30.1658 22.5 30C22.5 28.1766 23.2243 26.428 24.5136 25.1386C25.803 23.8493 27.5516 23.125 29.375 23.125H33.125C33.2908 23.125 33.4497 23.1908 33.5669 23.3081C33.6842 23.4253 33.75 23.5842 33.75 23.75C33.75 24.6528 33.5722 25.5468 33.2267 26.381C32.8812 27.2151 32.3748 27.973 31.7364 28.6114C31.098 29.2498 30.3401 29.7562 29.5059 30.1017C28.6718 30.4472 27.7778 30.625 26.875 30.625ZM23.7875 29.375H26.875C28.2582 29.3743 29.5926 28.8641 30.6233 27.9417C31.6541 27.0194 32.3088 25.7496 32.4625 24.375H29.375C27.9918 24.3757 26.6574 24.8859 25.6267 25.8083C24.5959 26.7306 23.9412 28.0004 23.7875 29.375Z" fill="#FF7442"/>
<path d="M20 22.5C19.8342 22.5 19.6753 22.4342 19.5581 22.3169C19.4408 22.1997 19.375 22.0408 19.375 21.875C19.375 21.5435 19.2433 21.2255 19.0089 20.9911C18.7745 20.7567 18.4565 20.625 18.125 20.625H10.625C9.7962 20.625 9.00134 20.2958 8.41529 19.7097C7.82924 19.1237 7.5 18.3288 7.5 17.5V7.5C7.5 6.6712 7.82924 5.87634 8.41529 5.29029C9.00134 4.70424 9.7962 4.375 10.625 4.375H29.375C30.2038 4.375 30.9987 4.70424 31.5847 5.29029C32.1708 5.87634 32.5 6.6712 32.5 7.5V17.5C32.5 18.3288 32.1708 19.1237 31.5847 19.7097C30.9987 20.2958 30.2038 20.625 29.375 20.625H21.875C21.5435 20.625 21.2255 20.7567 20.9911 20.9911C20.7567 21.2255 20.625 21.5435 20.625 21.875C20.625 22.0408 20.5592 22.1997 20.4419 22.3169C20.3247 22.4342 20.1658 22.5 20 22.5ZM10.625 5.625C10.1277 5.625 9.65081 5.82254 9.29917 6.17417C8.94754 6.52581 8.75 7.00272 8.75 7.5V17.5C8.75 17.9973 8.94754 18.4742 9.29917 18.8258C9.65081 19.1775 10.1277 19.375 10.625 19.375H18.125C18.4534 19.3747 18.7786 19.4392 19.0821 19.5647C19.3856 19.6901 19.6614 19.8742 19.8938 20.1062L20 20.225C20.2343 19.9583 20.5227 19.7446 20.8459 19.598C21.1692 19.4515 21.52 19.3754 21.875 19.375H29.375C29.8723 19.375 30.3492 19.1775 30.7008 18.8258C31.0525 18.4742 31.25 17.9973 31.25 17.5V7.5C31.25 7.00272 31.0525 6.52581 30.7008 6.17417C30.3492 5.82254 29.8723 5.625 29.375 5.625H10.625ZM20 33.9438C19.8342 33.9438 19.6753 33.8779 19.5581 33.7607C19.4408 33.6435 19.375 33.4845 19.375 33.3188V31.875C19.375 31.212 19.1116 30.5761 18.6428 30.1072C18.1739 29.6384 17.538 29.375 16.875 29.375C16.7092 29.375 16.5503 29.3092 16.4331 29.1919C16.3158 29.0747 16.25 28.9158 16.25 28.75C16.25 28.5842 16.3158 28.4253 16.4331 28.3081C16.5503 28.1908 16.7092 28.125 16.875 28.125C17.8696 28.125 18.8234 28.5201 19.5267 29.2233C20.2299 29.9266 20.625 30.8804 20.625 31.875V33.3188C20.625 33.4845 20.5592 33.6435 20.4419 33.7607C20.3247 33.8779 20.1658 33.9438 20 33.9438Z" fill="#FF7442"/>
<path d="M20 33.75C19.8342 33.75 19.6753 33.6842 19.5581 33.5669C19.4408 33.4497 19.375 33.2908 19.375 33.125C19.375 32.1304 19.7701 31.1766 20.4733 30.4733C21.1766 29.7701 22.1304 29.375 23.125 29.375C23.2908 29.375 23.4497 29.4408 23.5669 29.5581C23.6842 29.6753 23.75 29.8342 23.75 30C23.75 30.1658 23.6842 30.3247 23.5669 30.4419C23.4497 30.5592 23.2908 30.625 23.125 30.625C22.462 30.625 21.8261 30.8884 21.3572 31.3572C20.8884 31.8261 20.625 32.462 20.625 33.125C20.625 33.2908 20.5592 33.4497 20.4419 33.5669C20.3247 33.6842 20.1658 33.75 20 33.75Z" fill="#FF7442"/>
<path d="M20 33.75C19.8342 33.75 19.6753 33.6842 19.5581 33.5669C19.4408 33.4497 19.375 33.2908 19.375 33.125V21.875C19.375 21.7092 19.4408 21.5503 19.5581 21.4331C19.6753 21.3158 19.8342 21.25 20 21.25C20.1658 21.25 20.3247 21.3158 20.4419 21.4331C20.5592 21.5503 20.625 21.7092 20.625 21.875V33.125C20.625 33.2908 20.5592 33.4497 20.4419 33.5669C20.3247 33.6842 20.1658 33.75 20 33.75Z" fill="#FF7442"/>
<path d="M26.875 35.625H21.875C21.52 35.6246 21.1692 35.5485 20.8459 35.402C20.5227 35.2554 20.2343 35.0417 20 34.775C19.7657 35.0417 19.4773 35.2554 19.1541 35.402C18.8308 35.5485 18.48 35.6246 18.125 35.625H13.125C12.9592 35.625 12.8003 35.5592 12.6831 35.4419C12.5658 35.3247 12.5 35.1658 12.5 35C12.5 34.8342 12.5658 34.6753 12.6831 34.5581C12.8003 34.4408 12.9592 34.375 13.125 34.375H18.125C18.4565 34.375 18.7745 34.2433 19.0089 34.0089C19.2433 33.7745 19.375 33.4565 19.375 33.125C19.375 32.9592 19.4408 32.8003 19.5581 32.6831C19.6753 32.5658 19.8342 32.5 20 32.5C20.1658 32.5 20.3247 32.5658 20.4419 32.6831C20.5592 32.8003 20.625 32.9592 20.625 33.125C20.625 33.4565 20.7567 33.7745 20.9911 34.0089C21.2255 34.2433 21.5435 34.375 21.875 34.375H26.875C27.0408 34.375 27.1997 34.4408 27.3169 34.5581C27.4342 34.6753 27.5 34.8342 27.5 35C27.5 35.1658 27.4342 35.3247 27.3169 35.4419C27.1997 35.5592 27.0408 35.625 26.875 35.625Z" fill="#FF7442"/>
</svg>
