<svg width="40" height="40" viewBox="0 0 40 40" fill="none" xmlns="http://www.w3.org/2000/svg">
<g clip-path="url(#clip0_408_29)">
<path d="M20.8 30.36V34.4H26.4C26.84 34.4 27.2 34.76 27.2 35.2C27.2 35.64 26.84 36 26.4 36H13.6C13.16 36 12.8 35.64 12.8 35.2C12.8 34.76 13.16 34.4 13.6 34.4H19.2V30.36C13.84 29.96 9.59998 25.44 9.59998 20C9.59998 19.56 9.95998 19.2 10.4 19.2C10.84 19.2 11.2 19.56 11.2 20C11.2 24.84 15.16 28.8 20 28.8C24.84 28.8 28.8 24.84 28.8 20C28.8 19.56 29.16 19.2 29.6 19.2C30.04 19.2 30.4 19.56 30.4 20C30.4 25.48 26.16 29.96 20.8 30.36ZM26 10V20C26 23.32 23.32 26 20 26C16.68 26 14 23.32 14 20V10C14 6.68 16.68 4 20 4C23.32 4 26 6.68 26 10ZM24.4 10C24.4 7.56 22.44 5.6 20 5.6C17.56 5.6 15.6 7.56 15.6 10V20C15.6 22.44 17.56 24.4 20 24.4C22.44 24.4 24.4 22.44 24.4 20V10Z" fill="#FF7442"/>
<path d="M433.6 -260V413.6H-280V-260H433.6ZM436.8 -263.2H-283.2V416.8H436.8V-263.2Z" fill="#FF7442"/>
</g>
<defs>
<clipPath id="clip0_408_29">
<rect width="40" height="40" fill="white"/>
</clipPath>
</defs>
</svg>
