<svg width="40" height="40" viewBox="0 0 40 40" fill="none" xmlns="http://www.w3.org/2000/svg">
<path d="M31.8726 3.75245C31.7792 3.75276 31.6871 3.77397 31.6031 3.81453C31.519 3.85509 31.4451 3.91396 31.3867 3.98682L26.3867 10.2368C26.3139 10.3288 26.2684 10.4394 26.2554 10.5561C26.2425 10.6727 26.2627 10.7906 26.3136 10.8963C26.3645 11.002 26.4442 11.0913 26.5435 11.1538C26.6428 11.2164 26.7577 11.2497 26.875 11.25H28.75V21.3232C26.9454 21.568 25.3456 22.4564 24.1846 23.75H20.625C20.5831 23.7507 20.5414 23.7556 20.5005 23.7647C20.3596 23.7933 20.2329 23.8697 20.1417 23.9808C20.0506 24.092 20.0005 24.2312 20 24.375V33.125C20 33.2908 20.0659 33.4497 20.1831 33.5669C20.3003 33.6841 20.4592 33.75 20.625 33.75H24.187C25.5612 35.2796 27.5481 36.25 29.7607 36.25C33.8955 36.25 37.2607 32.8848 37.2607 28.75C37.2607 26.6528 36.3928 24.7537 35 23.3911V11.25H36.875C36.9923 11.2497 37.1072 11.2164 37.2065 11.1538C37.3058 11.0913 37.3855 11.002 37.4364 10.8963C37.4873 10.7906 37.5075 10.6727 37.4946 10.5561C37.4816 10.4394 37.4361 10.3288 37.3633 10.2368L32.3633 3.98682C32.3044 3.91331 32.2297 3.85406 32.1447 3.81347C32.0598 3.77289 31.9667 3.75203 31.8726 3.75245ZM31.875 5.37598L35.5737 10H34.375C34.2092 10 34.0503 10.0659 33.9331 10.1831C33.8159 10.3003 33.75 10.4593 33.75 10.625V22.4097C32.6564 21.7188 31.3757 21.3059 30 21.2622V10.625C30 10.4593 29.9341 10.3003 29.8169 10.1831C29.6997 10.0659 29.5408 10 29.375 10H28.1763L31.875 5.37598ZM11.875 13.75C11.7092 13.75 11.5503 13.8159 11.4331 13.9331C11.3159 14.0503 11.25 14.2093 11.25 14.375V33.125C11.25 33.2908 11.3159 33.4497 11.4331 33.5669C11.5503 33.6841 11.7092 33.75 11.875 33.75H16.875C17.0408 33.75 17.1997 33.6841 17.3169 33.5669C17.4341 33.4497 17.5 33.2908 17.5 33.125V14.375C17.5 14.2093 17.4341 14.0503 17.3169 13.9331C17.1997 13.8159 17.0408 13.75 16.875 13.75H11.875ZM12.5 15H16.25V32.5H12.5V15ZM3.125 18.75C2.95924 18.75 2.80028 18.8159 2.68308 18.9331C2.56587 19.0503 2.50002 19.2093 2.5 19.375V33.125C2.50002 33.2908 2.56587 33.4497 2.68308 33.5669C2.80028 33.6841 2.95924 33.75 3.125 33.75H8.125C8.29076 33.75 8.44972 33.6841 8.56692 33.5669C8.68413 33.4497 8.74998 33.2908 8.75 33.125V19.375C8.74998 19.2093 8.68413 19.0503 8.56692 18.9331C8.44972 18.8159 8.29076 18.75 8.125 18.75H3.125ZM3.75 20H7.5V32.5H3.75V20ZM29.7607 22.5C33.2199 22.5 36.0107 25.2909 36.0107 28.75C36.0107 32.2093 33.2199 35 29.7607 35C26.3016 35 23.5107 32.2093 23.5107 28.75C23.5107 25.2909 26.3016 22.5 29.7607 22.5ZM29.4067 23.75V24.9072C29.0924 24.9459 28.8089 25.022 28.5547 25.1343C28.3004 25.2465 28.0831 25.391 27.9028 25.5664C27.7272 25.7419 27.5897 25.948 27.4927 26.1865C27.4002 26.4252 27.356 26.6899 27.356 26.9775C27.356 27.2899 27.4083 27.5642 27.5146 27.8027C27.6256 28.0413 27.7824 28.2526 27.9858 28.4351C28.1939 28.6175 28.4441 28.7767 28.7354 28.9136C29.0312 29.047 29.3641 29.1634 29.7339 29.2651C30.0112 29.3564 30.2477 29.4526 30.4419 29.5508C30.6407 29.649 30.7978 29.7548 30.918 29.8706C31.0428 29.9864 31.1335 30.1108 31.189 30.2441C31.2444 30.3775 31.272 30.5232 31.272 30.6812C31.272 30.8706 31.2388 31.0443 31.1694 31.1987C31.1001 31.3496 30.9983 31.4782 30.8643 31.5869C30.7348 31.6923 30.5726 31.774 30.3784 31.8335C30.1889 31.8894 29.9716 31.919 29.7266 31.919C29.5509 31.919 29.3749 31.8963 29.1992 31.8506C29.0236 31.805 28.864 31.7247 28.7207 31.6089C28.5774 31.4931 28.4618 31.3366 28.374 31.1401C28.2862 30.9437 28.2422 30.6962 28.2422 30.398H27.0215C27.0215 30.7944 27.0847 31.1343 27.2095 31.4185C27.3343 31.6992 27.5019 31.9332 27.71 32.1191C27.9226 32.3052 28.1648 32.4457 28.4375 32.544C28.7102 32.6425 28.991 32.708 29.2822 32.7393V33.75H30.2466V32.7393C30.5933 32.7042 30.9043 32.6346 31.1816 32.5293C31.459 32.424 31.6955 32.2824 31.8896 32.1069C32.0838 31.9315 32.235 31.7254 32.3413 31.4868C32.4476 31.2447 32.5 30.9731 32.5 30.6714C32.5 30.3626 32.4503 30.0911 32.3486 29.856C32.2469 29.6209 32.0957 29.4124 31.897 29.2334C31.6982 29.0545 31.4533 28.898 31.1621 28.7647C30.8709 28.6278 30.5353 28.5072 30.1562 28.3984C29.8604 28.3037 29.6101 28.2062 29.4067 28.1079C29.208 28.0062 29.0481 27.898 28.9233 27.7857C28.7985 27.6733 28.7078 27.5527 28.6523 27.4194C28.6015 27.2826 28.5767 27.1289 28.5767 26.9605C28.5767 26.778 28.6015 26.6108 28.6523 26.46C28.7078 26.3091 28.7877 26.1819 28.894 26.0767C29.005 25.9678 29.1424 25.8823 29.3042 25.8228C29.466 25.7632 29.656 25.7349 29.8779 25.7349C30.0906 25.7349 30.2804 25.7738 30.4468 25.8545C30.6132 25.9352 30.7533 26.0475 30.8643 26.1914C30.9752 26.3352 31.0578 26.5052 31.1133 26.7017C31.1734 26.8982 31.2036 27.116 31.2036 27.3511H32.417C32.417 26.6388 32.2383 26.077 31.8823 25.6665C31.531 25.2525 31.0329 24.9998 30.3857 24.9121V23.75H29.4067ZM21.25 25H23.2739C22.6327 26.1046 22.2607 27.3837 22.2607 28.75C22.2607 30.1175 22.6341 31.3948 23.2764 32.5H21.25V25Z" fill="#FF7442"/>
</svg>
