<svg width="40" height="40" viewBox="0 0 40 40" fill="none" xmlns="http://www.w3.org/2000/svg">
<path d="M32.9289 32.1094L30.7812 31.7C31.594 31.2505 32.2715 30.5916 32.7436 29.7918C33.2156 28.9919 33.4649 28.0803 33.4656 27.1516V23.3352C33.4633 22.129 33.0431 20.9609 32.2766 20.0297C32.6205 19.7444 32.9029 19.3922 33.1066 18.9944C33.3102 18.5966 33.4309 18.1616 33.4612 17.7157C33.4915 17.2698 33.4309 16.8225 33.283 16.4008C33.1351 15.9791 32.903 15.5918 32.6008 15.2626C32.2986 14.9334 31.9326 14.669 31.5251 14.4856C31.1176 14.3022 30.677 14.2035 30.2302 14.1956C29.7834 14.1877 29.3396 14.2708 28.9259 14.4396C28.5122 14.6085 28.1371 14.8598 27.8234 15.1781C27.4394 14.524 26.9202 13.9594 26.3005 13.522C25.6807 13.0847 24.9747 12.7847 24.2297 12.6422L22.4281 12.2992C23.1377 11.8778 23.7255 11.2791 24.1339 10.562C24.5423 9.84486 24.7573 9.03387 24.7578 8.20859V2.09922C24.7502 1.58409 24.5651 1.08736 24.2336 0.692969C23.868 0.252344 23.3594 0 22.8492 0H15.8266C15.6712 0 15.5221 0.0617325 15.4122 0.171617C15.3024 0.281502 15.2406 0.430537 15.2406 0.585938V2.71094C15.2401 3.1087 15.3647 3.49654 15.5969 3.81953C15.3682 4.0505 15.2402 4.3625 15.2406 4.6875V8.20938C15.2411 9.03466 15.4561 9.84564 15.8645 10.5628C16.2729 11.2799 16.8608 11.8786 17.5703 12.3L15.7687 12.643C14.5535 12.8753 13.4573 13.5238 12.6685 14.477C11.8797 15.4302 11.4478 16.6284 11.4469 17.8656V18.1367H7.12344C6.96804 18.1367 6.819 18.1985 6.70912 18.3083C6.59923 18.4182 6.5375 18.5673 6.5375 18.7227V21.0719C6.53783 21.5169 6.6838 21.9496 6.95312 22.3039C6.8226 22.4255 6.71848 22.5727 6.64725 22.7362C6.57602 22.8998 6.53919 23.0763 6.53906 23.2547V27.1484C6.5393 28.0767 6.78792 28.988 7.25911 29.7878C7.7303 30.5876 8.40691 31.2467 9.21875 31.6969L7.07109 32.1094C5.74177 32.3638 4.54264 33.0735 3.67989 34.1163C2.81714 35.1591 2.34468 36.47 2.34375 37.8234V39.4141C2.34375 39.5695 2.40548 39.7185 2.51537 39.8284C2.62525 39.9383 2.77429 40 2.92969 40C3.08509 40 3.23412 39.9383 3.34401 39.8284C3.45389 39.7185 3.51562 39.5695 3.51562 39.4141V37.8234C3.51651 36.7427 3.89385 35.6961 4.58278 34.8634C5.27171 34.0308 6.22919 33.4641 7.29063 33.2609L9.21875 32.8906V32.9375C9.23037 33.5969 9.50048 34.2254 9.97091 34.6876C10.4413 35.1498 11.0745 35.4088 11.734 35.4088C12.3935 35.4088 13.0266 35.1498 13.4971 34.6876C13.9675 34.2254 14.2376 33.5969 14.2492 32.9375V32.8906L16.1805 33.2586C17.2419 33.4618 18.1994 34.0284 18.8883 34.8611C19.5772 35.6937 19.9546 36.7404 19.9555 37.8211V39.4141C19.9555 39.491 19.9706 39.5672 20.0001 39.6383C20.0295 39.7094 20.0727 39.774 20.1271 39.8284C20.1815 39.8828 20.2461 39.926 20.3172 39.9554C20.3883 39.9848 20.4645 40 20.5414 40C20.6184 40 20.6945 39.9848 20.7656 39.9554C20.8367 39.926 20.9013 39.8828 20.9557 39.8284C21.0101 39.774 21.0533 39.7094 21.0827 39.6383C21.1122 39.5672 21.1273 39.491 21.1273 39.4141V37.8234C21.1277 37.0306 20.9653 36.2462 20.65 35.5188C20.9845 34.9376 21.4401 34.4351 21.9859 34.0456C22.5317 33.656 23.1549 33.3884 23.8133 33.2609L25.7477 32.8906V32.9375C25.7593 33.5969 26.0294 34.2254 26.4998 34.6876C26.9703 35.1498 27.6034 35.4088 28.2629 35.4088C28.9224 35.4088 29.5555 35.1498 30.026 34.6876C30.4964 34.2254 30.7665 33.5969 30.7781 32.9375V32.8906L32.7094 33.2586C33.7712 33.4619 34.729 34.0289 35.418 34.862C36.1069 35.6951 36.484 36.7423 36.4844 37.8234V39.4141C36.4844 39.5695 36.5461 39.7185 36.656 39.8284C36.7659 39.9383 36.9149 40 37.0703 40C37.2257 40 37.3747 39.9383 37.4846 39.8284C37.5945 39.7185 37.6562 39.5695 37.6562 39.4141V37.8234C37.6553 36.47 37.1829 35.1591 36.3201 34.1163C35.4574 33.0735 34.2582 32.3638 32.9289 32.1094ZM30.1891 15.3477C30.6098 15.3477 31.0211 15.4724 31.371 15.7062C31.7208 15.9399 31.9935 16.2722 32.1545 16.6609C32.3155 17.0496 32.3576 17.4774 32.2755 17.89C32.1934 18.3027 31.9908 18.6817 31.6933 18.9793C31.3958 19.2768 31.0168 19.4794 30.6041 19.5615C30.1914 19.6436 29.7637 19.6014 29.375 19.4404C28.9862 19.2794 28.654 19.0067 28.4202 18.6569C28.1865 18.307 28.0617 17.8957 28.0617 17.475C28.0625 16.911 28.2869 16.3704 28.6857 15.9717C29.0845 15.5729 29.6251 15.3485 30.1891 15.3477ZM30.1891 20.7742C30.5406 20.7742 30.8898 20.7177 31.2234 20.607C31.9059 21.3489 32.2863 22.3193 32.2898 23.3273C31.8992 23.4727 31.2102 23.6258 30.5039 23.3148C30.0711 23.1172 29.7093 22.7916 29.4672 22.382C29.4213 22.305 29.3583 22.2395 29.2831 22.1906C29.2078 22.1417 29.1224 22.1108 29.0334 22.1002C28.9443 22.0895 28.854 22.0995 28.7694 22.1292C28.6847 22.159 28.6081 22.2078 28.5453 22.2719C27.9991 22.8353 27.3037 23.2315 26.5406 23.4141C25.7774 23.5968 24.978 23.5583 24.2359 23.3031C24.2401 22.3721 24.5681 21.4715 25.1637 20.7558C25.7592 20.0401 26.5852 19.5538 27.5 19.3805C27.8043 19.8107 28.2072 20.1618 28.6751 20.4042C29.143 20.6467 29.6621 20.7736 30.1891 20.7742ZM16.4125 1.17188H22.8492C23.2078 1.17188 23.5875 1.64844 23.5875 2.09922V3.45234C23.5656 3.45234 23.5437 3.45234 23.5219 3.45234H17.1508C16.955 3.45214 16.7674 3.37429 16.629 3.23588C16.4906 3.09747 16.4127 2.9098 16.4125 2.71406V1.17188ZM16.4125 8.20859V4.6875C16.4127 4.67016 16.4197 4.65358 16.4319 4.64132C16.4442 4.62906 16.4608 4.62208 16.4781 4.62187H23.5219C23.5392 4.62208 23.5558 4.62906 23.5681 4.64132C23.5803 4.65358 23.5873 4.67016 23.5875 4.6875V8.20938C23.5867 8.88609 23.3948 9.54882 23.0339 10.1213C22.673 10.6938 22.1578 11.1527 21.5477 11.4453C21.5167 11.456 21.4869 11.4696 21.4586 11.4859C20.9125 11.7294 20.3142 11.8325 19.7181 11.7857C19.122 11.739 18.547 11.5439 18.0456 11.2183C17.5441 10.8927 17.132 10.4468 16.8468 9.92129C16.5616 9.39578 16.4123 8.8073 16.4125 8.20938V8.20859ZM21.1594 12.8242V13.4492C21.1594 13.7567 21.0372 14.0516 20.8198 14.269C20.6024 14.4864 20.3075 14.6086 20 14.6086C19.6925 14.6086 19.3976 14.4864 19.1802 14.269C18.9628 14.0516 18.8406 13.7567 18.8406 13.4492V12.8242C19.6017 13.0159 20.3983 13.0159 21.1594 12.8242ZM7.70937 19.3086H14.8875C15.3219 19.3086 15.7648 19.8555 15.7648 20.3953V21.9578C15.7211 21.9578 15.6758 21.9516 15.6305 21.9516H8.5875C8.35467 21.9514 8.13144 21.8588 7.9668 21.6941C7.80216 21.5295 7.70958 21.3063 7.70937 21.0734V19.3086ZM13.0805 32.9406C13.072 33.2913 12.9268 33.6248 12.6758 33.8698C12.4248 34.1148 12.0879 34.252 11.7371 34.252C11.3863 34.252 11.0495 34.1148 10.7985 33.8698C10.5475 33.6248 10.4022 33.2913 10.3937 32.9406V32.1719C11.2731 32.4068 12.1987 32.4068 13.0781 32.1719C13.0766 32.1955 13.0766 32.2193 13.0781 32.243L13.0805 32.9406ZM13.4711 30.7836C13.4385 30.7944 13.4071 30.8086 13.3773 30.8258C12.7642 31.0999 12.0922 31.2163 11.4226 31.1643C10.753 31.1123 10.1071 30.8935 9.54366 30.528C8.98023 30.1624 8.51723 29.6617 8.19685 29.0714C7.87647 28.4811 7.70889 27.8201 7.70937 27.1484V23.2547C7.71059 23.2199 7.72528 23.1869 7.75035 23.1627C7.77542 23.1385 7.80891 23.125 7.84375 23.125H15.6305C15.666 23.125 15.7 23.139 15.7252 23.1641C15.7504 23.1891 15.7646 23.2231 15.7648 23.2586V27.1484C15.7638 27.9085 15.548 28.6528 15.1423 29.2956C14.7367 29.9383 14.1576 30.4533 13.4719 30.7812L13.4711 30.7836ZM25.7469 31.7008L23.5938 32.1094C22.1536 32.3893 20.871 33.1998 20 34.3805C19.1321 33.1965 17.8481 32.3851 16.4062 32.1094L14.2555 31.6992C15.0682 31.2497 15.7457 30.5908 16.2178 29.791C16.6898 28.9911 16.9391 28.0795 16.9398 27.1508V20.3945C16.9314 19.8394 16.7319 19.3042 16.375 18.8789C15.9805 18.4102 15.4375 18.1359 14.8906 18.1359H12.625V17.8648C12.6258 16.9004 12.9625 15.9663 13.5773 15.2232C14.1921 14.4801 15.0465 13.9744 15.9937 13.793L17.6758 13.4734C17.6758 14.0915 17.9213 14.6843 18.3584 15.1213C18.7954 15.5584 19.3882 15.8039 20.0062 15.8039C20.6243 15.8039 21.2171 15.5584 21.6541 15.1213C22.0912 14.6843 22.3367 14.0915 22.3367 13.4734L24.018 13.7937C24.704 13.9251 25.3459 14.2275 25.8841 14.6728C26.4222 15.1182 26.8394 15.6921 27.0969 16.3414C26.8679 16.9676 26.8336 17.6485 26.9984 18.2945C25.8737 18.5745 24.8754 19.2236 24.1631 20.138C23.4508 21.0524 23.0658 22.1792 23.0695 23.3383V23.4164C23.0698 23.4654 23.0761 23.5142 23.0883 23.5617C23.0757 23.6096 23.0694 23.659 23.0695 23.7086V27.1484C23.0702 28.0772 23.3196 28.9888 23.7916 29.7886C24.2636 30.5885 24.9412 31.2474 25.7539 31.6969L25.7469 31.7008ZM29.6094 32.9398C29.6009 33.2905 29.4557 33.624 29.2047 33.869C28.9537 34.114 28.6168 34.2512 28.266 34.2512C27.9152 34.2512 27.5784 34.114 27.3274 33.869C27.0764 33.624 26.9311 33.2905 26.9227 32.9398V32.1711C27.802 32.406 28.7277 32.406 29.607 32.1711C29.6055 32.1948 29.6055 32.2185 29.607 32.2422L29.6094 32.9398ZM30 30.7812C29.9672 30.7922 29.9355 30.8064 29.9055 30.8234C29.2924 31.0976 28.6205 31.2139 27.951 31.162C27.2814 31.11 26.6355 30.8913 26.0721 30.5258C25.5087 30.1604 25.0457 29.6598 24.7253 29.0696C24.4048 28.4794 24.2371 27.8184 24.2375 27.1469V24.5234C25.0337 24.7339 25.8681 24.7552 26.674 24.5856C27.4799 24.416 28.235 24.0603 28.8789 23.5469C29.1993 23.9064 29.5931 24.193 30.0336 24.3875C30.7474 24.6929 31.5431 24.7496 32.293 24.5484V27.1484C32.2919 27.9085 32.076 28.6528 31.6703 29.2955C31.2647 29.9382 30.6856 30.4533 30 30.7812Z" fill="#FF7442"/>
</svg>
