<svg width="21" height="21" viewBox="0 0 21 21" fill="none" xmlns="http://www.w3.org/2000/svg">
<path d="M20.1704 7.62062L13.9716 6.71974L11.2006 1.10206C11.125 0.948251 11.0005 0.823739 10.8466 0.748056C10.4609 0.557626 9.99215 0.716318 9.79928 1.10206L7.02828 6.71974L0.829552 7.62062C0.658653 7.64503 0.502403 7.72559 0.382774 7.84767C0.23815 7.99631 0.158455 8.1963 0.161202 8.40368C0.163948 8.61105 0.248912 8.80886 0.397423 8.95362L4.88229 13.3262L3.82272 19.5005C3.79787 19.6441 3.81376 19.7918 3.86859 19.9269C3.92343 20.062 4.015 20.1789 4.13294 20.2646C4.25088 20.3503 4.39046 20.4012 4.53585 20.4115C4.68124 20.4219 4.82663 20.3913 4.95553 20.3233L10.5 17.4082L16.0444 20.3233C16.1958 20.4038 16.3715 20.4307 16.54 20.4014C16.9648 20.3281 17.2505 19.9253 17.1772 19.5005L16.1176 13.3262L20.6025 8.95362C20.7246 8.83399 20.8051 8.67774 20.8296 8.50684C20.8955 8.0796 20.5976 7.68409 20.1704 7.62062Z" fill="#FF7442"/>
</svg>
